<svg width="249" height="15" viewBox="0 0 249 15" fill="none" xmlns="http://www.w3.org/2000/svg">
<path d="M248.959 0.618408V14.6674H244.633V9.24941H236.275V14.6674H231.907V0.618408H236.275V5.59541H244.633V0.618408H248.959Z" fill="white"/>
<path d="M220.549 11.0554H230.398L227.605 14.6674H220.549C215.677 14.6674 212.086 11.5804 212.086 7.50641C212.086 3.39041 215.677 0.618408 220.549 0.618408H230.398L227.605 4.27241H220.549C218.197 4.27241 216.433 5.67941 216.433 7.69541C216.433 9.69041 218.176 11.0554 220.549 11.0554Z" fill="white"/>
<path d="M199.094 11.0554H211.043L208.25 14.6674H194.726V0.618408H211.001L208.187 4.27241H199.094V5.95241H210.224L207.725 9.14441H199.094V11.0554Z" fill="white"/>
<path d="M177.452 0.618408H193.412L190.598 4.27241H185.579V14.6674H181.232V4.27241H174.638L177.452 0.618408Z" fill="white"/>
<path d="M165.246 0.618408V14.6674H160.92V9.24941H152.562V14.6674H148.194V0.618408H152.562V5.59541H160.92V0.618408H165.246Z" fill="white"/>
<path d="M133.349 6.22541H140.993C144.416 6.22541 146.264 7.50641 146.264 10.0684C146.264 12.9454 144.521 14.6674 140.237 14.6674H127.154L129.947 11.0554H140.573C141.602 11.0554 142.064 10.7614 142.064 10.0264C142.064 9.31241 141.602 9.01841 140.573 9.01841H132.929C129.317 9.01841 127.658 7.40141 127.658 4.98641C127.658 2.34041 129.422 0.618408 133.685 0.618408H145.886L143.093 4.27241H133.349C132.341 4.27241 131.858 4.52441 131.858 5.23841C131.858 5.95241 132.341 6.22541 133.349 6.22541Z" fill="white"/>
<path d="M115.509 0.387451C122.334 0.387451 125.778 2.61345 125.778 7.63245C125.778 12.6515 122.334 14.8985 115.509 14.8985C108.663 14.8985 105.24 12.6515 105.24 7.63245C105.24 2.61345 108.663 0.387451 115.509 0.387451ZM115.509 11.2445C119.877 11.2445 121.452 10.6565 121.452 7.63245C121.452 4.60845 119.877 4.04145 115.509 4.04145C111.141 4.04145 109.566 4.60845 109.566 7.63245C109.566 10.6565 111.141 11.2445 115.509 11.2445Z" fill="white"/>
<path d="M100.423 10.0264L106.24 14.6674H99.6671L95.4251 10.9714C93.9761 9.71141 93.3041 9.10241 92.8211 8.61941C92.8421 9.27041 92.8841 9.96341 92.8841 10.6354V14.6674H88.5161V0.618408H92.8841V3.87341C92.8841 4.73441 92.8421 5.59541 92.8001 6.33041C93.3461 5.82641 94.1021 5.11241 95.3831 4.04141L99.4361 0.618408H105.736L100.36 4.65041C98.4911 6.05741 97.6301 6.68741 96.7271 7.23341C97.5251 7.77941 98.6171 8.55641 100.423 10.0264Z" fill="white"/>
<path d="M67.0443 11.0554H78.9933L76.2003 14.6674H62.6763V0.618408H78.9513L76.1373 4.27241H67.0443V5.95241H78.1743L75.6753 9.14441H67.0443V11.0554Z" fill="white"/>
<path d="M60.4701 7.50641C60.4701 11.5804 56.8791 14.6674 52.0071 14.6674H42.5991V5.91041H46.9671V11.0554H52.0071C54.4221 11.0554 56.1651 9.71141 56.1651 7.69541C56.1651 5.72141 54.3591 4.27241 52.0071 4.27241H42.5991L45.3711 0.618408H52.0071C56.9211 0.618408 60.4701 3.45341 60.4701 7.50641Z" fill="white"/>
<path d="M30.1351 0.387451C36.9601 0.387451 40.4041 2.61345 40.4041 7.63245C40.4041 12.6515 36.9601 14.8985 30.1351 14.8985C23.2891 14.8985 19.8661 12.6515 19.8661 7.63245C19.8661 2.61345 23.2891 0.387451 30.1351 0.387451ZM30.1351 11.2445C34.5031 11.2445 36.0781 10.6565 36.0781 7.63245C36.0781 4.60845 34.5031 4.04145 30.1351 4.04145C25.7671 4.04145 24.1921 4.60845 24.1921 7.63245C24.1921 10.6565 25.7671 11.2445 30.1351 11.2445Z" fill="white"/>
<path d="M8.94921 11.0554H18.7982L16.0052 14.6674H8.94921C4.07721 14.6674 0.486206 11.5804 0.486206 7.50641C0.486206 3.39041 4.07721 0.618408 8.94921 0.618408H18.7982L16.0052 4.27241H8.94921C6.59721 4.27241 4.83321 5.67941 4.83321 7.69541C4.83321 9.69041 6.57621 11.0554 8.94921 11.0554Z" fill="white"/>
</svg>
