<svg width="44" height="44" viewBox="0 0 44 44" fill="none" xmlns="http://www.w3.org/2000/svg">
<g id="Group">
<path id="Vector" d="M7.33337 29.3333H36.6667V9.16667H7.33337V29.3333ZM23.8334 33V36.6667H31.1667V40.3333H12.8334V36.6667H20.1667V33H5.48537C5.24462 32.9986 5.00653 32.9496 4.78474 32.856C4.56294 32.7624 4.3618 32.6259 4.19285 32.4544C4.0239 32.2829 3.89046 32.0797 3.80017 31.8565C3.70988 31.6334 3.66453 31.3946 3.6667 31.1538V7.34617C3.6667 6.32683 4.50087 5.5 5.48537 5.5H38.5147C39.5194 5.5 40.3334 6.32317 40.3334 7.34617V31.1538C40.3334 32.1732 39.4992 33 38.5147 33H23.8334Z" fill="white"/>
</g>
</svg>
