<svg width="308" height="68" viewBox="0 0 308 68" fill="none" xmlns="http://www.w3.org/2000/svg">
<path d="M307.959 25.6184V39.6674H303.633V34.2494H295.275V39.6674H290.907V25.6184H295.275V30.5954H303.633V25.6184H307.959Z" fill="white"/>
<path d="M279.549 36.0554H289.398L286.605 39.6674H279.549C274.677 39.6674 271.086 36.5804 271.086 32.5064C271.086 28.3904 274.677 25.6184 279.549 25.6184H289.398L286.605 29.2724H279.549C277.197 29.2724 275.433 30.6794 275.433 32.6954C275.433 34.6904 277.176 36.0554 279.549 36.0554Z" fill="white"/>
<path d="M258.094 36.0554H270.043L267.25 39.6674H253.726V25.6184H270.001L267.187 29.2724H258.094V30.9524H269.224L266.725 34.1444H258.094V36.0554Z" fill="white"/>
<path d="M236.453 25.6184H252.413L249.599 29.2724H244.58V39.6674H240.233V29.2724H233.639L236.453 25.6184Z" fill="white"/>
<path d="M224.246 25.6184V39.6674H219.92V34.2494H211.562V39.6674H207.194V25.6184H211.562V30.5954H219.92V25.6184H224.246Z" fill="white"/>
<path d="M192.349 31.2254H199.993C203.416 31.2254 205.264 32.5064 205.264 35.0684C205.264 37.9454 203.521 39.6674 199.237 39.6674H186.154L188.947 36.0554H199.573C200.602 36.0554 201.064 35.7614 201.064 35.0264C201.064 34.3124 200.602 34.0184 199.573 34.0184H191.929C188.317 34.0184 186.658 32.4014 186.658 29.9864C186.658 27.3404 188.422 25.6184 192.685 25.6184H204.886L202.093 29.2724H192.349C191.341 29.2724 190.858 29.5244 190.858 30.2384C190.858 30.9524 191.341 31.2254 192.349 31.2254Z" fill="white"/>
<path d="M174.509 25.3874C181.334 25.3874 184.778 27.6134 184.778 32.6324C184.778 37.6514 181.334 39.8984 174.509 39.8984C167.663 39.8984 164.24 37.6514 164.24 32.6324C164.24 27.6134 167.663 25.3874 174.509 25.3874ZM174.509 36.2444C178.877 36.2444 180.452 35.6564 180.452 32.6324C180.452 29.6084 178.877 29.0414 174.509 29.0414C170.141 29.0414 168.566 29.6084 168.566 32.6324C168.566 35.6564 170.141 36.2444 174.509 36.2444Z" fill="white"/>
<path d="M159.423 35.0264L165.24 39.6674H158.667L154.425 35.9714C152.976 34.7114 152.304 34.1024 151.821 33.6194C151.842 34.2704 151.884 34.9634 151.884 35.6354V39.6674H147.516V25.6184H151.884V28.8734C151.884 29.7344 151.842 30.5954 151.8 31.3304C152.346 30.8264 153.102 30.1124 154.383 29.0414L158.436 25.6184H164.736L159.36 29.6504C157.491 31.0574 156.63 31.6874 155.727 32.2334C156.525 32.7794 157.617 33.5564 159.423 35.0264Z" fill="white"/>
<path d="M126.044 36.0554H137.993L135.2 39.6674H121.676V25.6184H137.951L135.137 29.2724H126.044V30.9524H137.174L134.675 34.1444H126.044V36.0554Z" fill="white"/>
<path d="M119.47 32.5064C119.47 36.5804 115.879 39.6674 111.007 39.6674H101.599V30.9104H105.967V36.0554H111.007C113.422 36.0554 115.165 34.7114 115.165 32.6954C115.165 30.7214 113.359 29.2724 111.007 29.2724H101.599L104.371 25.6184H111.007C115.921 25.6184 119.47 28.4534 119.47 32.5064Z" fill="white"/>
<path d="M89.1352 25.3874C95.9602 25.3874 99.4042 27.6134 99.4042 32.6324C99.4042 37.6514 95.9602 39.8984 89.1352 39.8984C82.2892 39.8984 78.8662 37.6514 78.8662 32.6324C78.8662 27.6134 82.2892 25.3874 89.1352 25.3874ZM89.1352 36.2444C93.5032 36.2444 95.0782 35.6564 95.0782 32.6324C95.0782 29.6084 93.5032 29.0414 89.1352 29.0414C84.7672 29.0414 83.1922 29.6084 83.1922 32.6324C83.1922 35.6564 84.7672 36.2444 89.1352 36.2444Z" fill="white"/>
<path d="M67.9493 36.0554H77.7983L75.0053 39.6674H67.9493C63.0773 39.6674 59.4863 36.5804 59.4863 32.5064C59.4863 28.3904 63.0773 25.6184 67.9493 25.6184H77.7983L75.0053 29.2724H67.9493C65.5973 29.2724 63.8333 30.6794 63.8333 32.6954C63.8333 34.6904 65.5763 36.0554 67.9493 36.0554Z" fill="white"/>
<path d="M298.543 53.472C298.543 53.2267 298.623 53.0773 298.783 53.024C298.943 52.96 299.135 52.928 299.359 52.928C299.583 52.928 299.764 52.96 299.903 53.024C300.052 53.0773 300.127 53.2267 300.127 53.472C300.127 53.6427 300.09 53.7707 300.015 53.856C299.951 53.9307 299.86 53.9787 299.743 54C299.626 54.0213 299.492 54.032 299.343 54.032C299.194 54.032 299.06 54.0213 298.943 54C298.826 53.9787 298.73 53.9307 298.655 53.856C298.58 53.7707 298.543 53.6427 298.543 53.472Z" fill="white"/>
<path d="M293.752 54.096C293.101 54.096 292.552 54.0533 292.104 53.968C291.666 53.8827 291.314 53.7227 291.048 53.488C290.792 53.2533 290.61 52.928 290.504 52.512C290.397 52.096 290.344 51.5573 290.344 50.896C290.344 50.1067 290.445 49.4667 290.648 48.976C290.85 48.4853 291.208 48.128 291.72 47.904C292.242 47.6693 292.968 47.552 293.896 47.552C294.621 47.552 295.197 47.6427 295.624 47.824C296.061 47.9947 296.376 48.2667 296.568 48.64C296.76 49.0133 296.856 49.488 296.856 50.064V51.088H292.36C292.36 50.9173 292.397 50.7787 292.472 50.672C292.546 50.5653 292.685 50.512 292.888 50.512H295.512L295.496 50.096C295.485 49.4987 295.357 49.0613 295.112 48.784C294.877 48.5067 294.45 48.368 293.832 48.368C293.32 48.368 292.92 48.448 292.632 48.608C292.344 48.768 292.141 49.0293 292.024 49.392C291.906 49.744 291.848 50.2347 291.848 50.864C291.848 51.5147 291.912 52.0107 292.04 52.352C292.178 52.6827 292.402 52.9067 292.712 53.024C293.032 53.1413 293.474 53.2 294.04 53.2C294.242 53.2 294.477 53.1947 294.744 53.184C295.021 53.1733 295.298 53.1573 295.576 53.136C295.864 53.1147 296.12 53.088 296.344 53.056C296.568 53.024 296.717 52.992 296.792 52.96V53.184C296.792 53.3013 296.765 53.4187 296.712 53.536C296.658 53.6533 296.546 53.7493 296.376 53.824C296.152 53.9307 295.821 54 295.384 54.032C294.957 54.0747 294.413 54.096 293.752 54.096Z" fill="white"/>
<path d="M286.803 54.096C285.939 54.096 285.24 54.0107 284.707 53.84C284.174 53.6693 283.79 53.3547 283.555 52.896C283.32 52.4373 283.203 51.7653 283.203 50.88C283.203 49.9627 283.32 49.264 283.555 48.784C283.79 48.2933 284.174 47.9627 284.707 47.792C285.24 47.6107 285.939 47.52 286.803 47.52C287.08 47.52 287.342 47.5307 287.587 47.552C287.843 47.5733 288.136 47.6107 288.467 47.664C288.648 47.6853 288.792 47.728 288.899 47.792C289.016 47.856 289.102 47.952 289.155 48.08C289.208 48.1973 289.235 48.3733 289.235 48.608C289.107 48.5547 288.92 48.5067 288.675 48.464C288.43 48.4213 288.168 48.3893 287.891 48.368C287.614 48.3467 287.368 48.336 287.155 48.336C286.547 48.336 286.062 48.416 285.699 48.576C285.347 48.7253 285.096 48.976 284.947 49.328C284.808 49.68 284.739 50.1653 284.739 50.784C284.739 51.4027 284.808 51.8933 284.947 52.256C285.096 52.6187 285.347 52.8747 285.699 53.024C286.051 53.1733 286.536 53.248 287.155 53.248C287.443 53.248 287.72 53.2373 287.987 53.216C288.254 53.184 288.494 53.1467 288.707 53.104C288.931 53.0507 289.107 53.0027 289.235 52.96V53.392C289.235 53.584 289.128 53.7333 288.915 53.84C288.702 53.936 288.414 54 288.051 54.032C287.699 54.0747 287.283 54.096 286.803 54.096Z" fill="white"/>
<path d="M281.211 54.064C280.646 54.064 280.262 53.9307 280.059 53.664C279.856 53.3867 279.755 52.976 279.755 52.432L279.771 47.616H281.259V52.352C281.259 52.7573 281.307 53.0347 281.403 53.184C281.51 53.3333 281.686 53.408 281.931 53.408C282.027 53.408 282.134 53.3973 282.251 53.376C282.368 53.3547 282.443 53.3387 282.475 53.328V53.936C282.432 53.9467 282.363 53.9627 282.267 53.984C282.171 54.0053 282.038 54.0213 281.867 54.032C281.696 54.0533 281.478 54.064 281.211 54.064ZM280.539 46.736C280.294 46.736 280.107 46.704 279.979 46.64C279.862 46.5653 279.803 46.432 279.803 46.24C279.803 46.048 279.862 45.92 279.979 45.856C280.096 45.7813 280.283 45.744 280.539 45.744C280.784 45.744 280.96 45.7813 281.067 45.856C281.184 45.92 281.243 46.048 281.243 46.24C281.243 46.432 281.184 46.5653 281.067 46.64C280.96 46.704 280.784 46.736 280.539 46.736Z" fill="white"/>
<path d="M275.633 54C275.452 54 275.297 53.9787 275.169 53.936C275.041 53.8933 274.929 53.8133 274.833 53.696C274.748 53.568 274.662 53.3973 274.577 53.184L272.625 47.616H274.177L275.505 51.808C275.58 52.0533 275.665 52.2187 275.761 52.304C275.857 52.3893 276.038 52.432 276.305 52.432C276.529 51.696 276.742 50.96 276.945 50.224C277.158 49.488 277.377 48.7573 277.601 48.032C277.633 47.904 277.686 47.8027 277.761 47.728C277.846 47.6533 277.974 47.616 278.145 47.616H278.721L276.577 54H275.633Z" fill="white"/>
<path d="M268.431 54H267.407C267.247 54 267.124 53.9573 267.039 53.872C266.954 53.7867 266.911 53.6267 266.911 53.392V47.936C267.167 47.8613 267.524 47.7813 267.983 47.696C268.442 47.6107 268.991 47.568 269.631 47.568C270.26 47.568 270.756 47.6107 271.119 47.696C271.482 47.7707 271.748 47.888 271.919 48.048C272.1 48.1973 272.212 48.384 272.255 48.608C272.308 48.8213 272.335 49.072 272.335 49.36H270.895L270.879 49.136C270.879 48.88 270.81 48.6987 270.671 48.592C270.543 48.4747 270.388 48.4 270.207 48.368C270.026 48.336 269.844 48.32 269.663 48.32C269.386 48.32 269.135 48.3467 268.911 48.4C268.698 48.4533 268.538 48.5227 268.431 48.608V54Z" fill="white"/>
<path d="M262.408 54.096C261.757 54.096 261.208 54.0533 260.76 53.968C260.323 53.8827 259.971 53.7227 259.704 53.488C259.448 53.2533 259.267 52.928 259.16 52.512C259.053 52.096 259 51.5573 259 50.896C259 50.1067 259.101 49.4667 259.304 48.976C259.507 48.4853 259.864 48.128 260.376 47.904C260.899 47.6693 261.624 47.552 262.552 47.552C263.277 47.552 263.853 47.6427 264.28 47.824C264.717 47.9947 265.032 48.2667 265.224 48.64C265.416 49.0133 265.512 49.488 265.512 50.064V51.088H261.016C261.016 50.9173 261.053 50.7787 261.128 50.672C261.203 50.5653 261.341 50.512 261.544 50.512H264.168L264.152 50.096C264.141 49.4987 264.013 49.0613 263.768 48.784C263.533 48.5067 263.107 48.368 262.488 48.368C261.976 48.368 261.576 48.448 261.288 48.608C261 48.768 260.797 49.0293 260.68 49.392C260.563 49.744 260.504 50.2347 260.504 50.864C260.504 51.5147 260.568 52.0107 260.696 52.352C260.835 52.6827 261.059 52.9067 261.368 53.024C261.688 53.1413 262.131 53.2 262.696 53.2C262.899 53.2 263.133 53.1947 263.4 53.184C263.677 53.1733 263.955 53.1573 264.232 53.136C264.52 53.1147 264.776 53.088 265 53.056C265.224 53.024 265.373 52.992 265.448 52.96V53.184C265.448 53.3013 265.421 53.4187 265.368 53.536C265.315 53.6533 265.203 53.7493 265.032 53.824C264.808 53.9307 264.477 54 264.04 54.032C263.613 54.0747 263.069 54.096 262.408 54.096Z" fill="white"/>
<path d="M250.018 52.688C250.253 52.8267 250.557 52.9333 250.93 53.008C251.314 53.072 251.709 53.1147 252.114 53.136C252.519 53.1467 252.871 53.152 253.17 53.152C253.287 53.152 253.421 53.152 253.57 53.152C253.73 53.1413 253.869 53.136 253.986 53.136C254.37 53.1253 254.706 53.0827 254.994 53.008C255.282 52.9227 255.501 52.784 255.65 52.592C255.81 52.4 255.89 52.128 255.89 51.776C255.89 51.3387 255.773 51.056 255.538 50.928C255.314 50.8 254.983 50.736 254.546 50.736C254.397 50.736 254.237 50.736 254.066 50.736C253.895 50.736 253.698 50.736 253.474 50.736C253.261 50.736 253.01 50.736 252.722 50.736C252.402 50.736 252.082 50.72 251.762 50.688C251.442 50.656 251.154 50.5867 250.898 50.48C250.642 50.3627 250.434 50.1813 250.274 49.936C250.114 49.68 250.034 49.3227 250.034 48.864C250.034 48.3307 250.13 47.9093 250.322 47.6C250.514 47.2907 250.781 47.0667 251.122 46.928C251.474 46.7787 251.874 46.6827 252.322 46.64C252.781 46.5973 253.282 46.576 253.826 46.576C254.146 46.576 254.498 46.5813 254.882 46.592C255.266 46.6027 255.634 46.6293 255.986 46.672C256.338 46.704 256.61 46.7627 256.802 46.848C257.026 46.8693 257.197 46.9387 257.314 47.056C257.442 47.1627 257.506 47.3013 257.506 47.472C257.506 47.504 257.506 47.5573 257.506 47.632C257.506 47.7067 257.506 47.776 257.506 47.84C257.506 47.904 257.506 47.952 257.506 47.984C257.421 47.8773 257.261 47.7973 257.026 47.744C256.802 47.68 256.546 47.632 256.258 47.6C255.97 47.568 255.687 47.5467 255.41 47.536C255.143 47.5147 254.914 47.504 254.722 47.504H253.634C253.271 47.504 252.946 47.536 252.658 47.6C252.37 47.6533 252.141 47.7707 251.97 47.952C251.799 48.1227 251.714 48.3893 251.714 48.752C251.714 49.0293 251.767 49.2427 251.874 49.392C251.991 49.5307 252.157 49.6267 252.37 49.68C252.594 49.7227 252.855 49.744 253.154 49.744C253.645 49.744 254.061 49.744 254.402 49.744C254.743 49.744 255.005 49.744 255.186 49.744C255.666 49.744 256.087 49.7867 256.45 49.872C256.823 49.9467 257.111 50.1227 257.314 50.4C257.527 50.6773 257.634 51.1147 257.634 51.712C257.634 52.2773 257.511 52.7307 257.266 53.072C257.021 53.4027 256.685 53.6427 256.258 53.792C255.831 53.9307 255.341 54.016 254.786 54.048C254.455 54.0693 254.135 54.08 253.826 54.08C253.517 54.0907 253.191 54.0907 252.85 54.08C252.541 54.08 252.221 54.0693 251.89 54.048C251.559 54.0267 251.25 53.9893 250.962 53.936C250.685 53.872 250.455 53.7867 250.274 53.68C250.103 53.5733 250.018 53.4293 250.018 53.248V52.688Z" fill="white"/>
<path d="M241.408 54.096C240.757 54.096 240.208 54.0533 239.76 53.968C239.323 53.8827 238.971 53.7227 238.704 53.488C238.448 53.2533 238.267 52.928 238.16 52.512C238.053 52.096 238 51.5573 238 50.896C238 50.1067 238.101 49.4667 238.304 48.976C238.507 48.4853 238.864 48.128 239.376 47.904C239.899 47.6693 240.624 47.552 241.552 47.552C242.277 47.552 242.853 47.6427 243.28 47.824C243.717 47.9947 244.032 48.2667 244.224 48.64C244.416 49.0133 244.512 49.488 244.512 50.064V51.088H240.016C240.016 50.9173 240.053 50.7787 240.128 50.672C240.203 50.5653 240.341 50.512 240.544 50.512H243.168L243.152 50.096C243.141 49.4987 243.013 49.0613 242.768 48.784C242.533 48.5067 242.107 48.368 241.488 48.368C240.976 48.368 240.576 48.448 240.288 48.608C240 48.768 239.797 49.0293 239.68 49.392C239.563 49.744 239.504 50.2347 239.504 50.864C239.504 51.5147 239.568 52.0107 239.696 52.352C239.835 52.6827 240.059 52.9067 240.368 53.024C240.688 53.1413 241.131 53.2 241.696 53.2C241.899 53.2 242.133 53.1947 242.4 53.184C242.677 53.1733 242.955 53.1573 243.232 53.136C243.52 53.1147 243.776 53.088 244 53.056C244.224 53.024 244.373 52.992 244.448 52.96V53.184C244.448 53.3013 244.421 53.4187 244.368 53.536C244.315 53.6533 244.203 53.7493 244.032 53.824C243.808 53.9307 243.477 54 243.04 54.032C242.613 54.0747 242.069 54.096 241.408 54.096Z" fill="white"/>
<path d="M236.151 54.064C235.586 54.064 235.181 53.952 234.935 53.728C234.69 53.4933 234.567 53.0827 234.567 52.496V46.56C234.567 46.3893 234.578 46.2613 234.599 46.176C234.631 46.08 234.69 46.016 234.775 45.984C234.861 45.9413 234.989 45.92 235.159 45.92H236.087C236.087 45.9413 236.077 46.0267 236.055 46.176C236.045 46.3253 236.039 46.5013 236.039 46.704V52.304C236.039 52.6987 236.087 52.9813 236.183 53.152C236.279 53.3227 236.461 53.408 236.727 53.408C236.813 53.408 236.914 53.3973 237.031 53.376C237.159 53.3547 237.239 53.3387 237.271 53.328V53.936C237.207 53.9467 237.095 53.968 236.935 54C236.775 54.0427 236.514 54.064 236.151 54.064Z" fill="white"/>
<path d="M226.474 55.712L226.49 48.912C226.49 48.6347 226.485 48.3893 226.474 48.176C226.474 47.9627 226.464 47.824 226.442 47.76C226.528 47.7387 226.688 47.7173 226.922 47.696C227.168 47.6747 227.445 47.6587 227.754 47.648C228.064 47.6267 228.378 47.6107 228.698 47.6C229.029 47.5787 229.322 47.568 229.578 47.568C230.485 47.568 231.189 47.68 231.69 47.904C232.202 48.128 232.56 48.4853 232.762 48.976C232.976 49.456 233.072 50.0907 233.05 50.88C233.018 51.6587 232.912 52.2827 232.73 52.752C232.549 53.2107 232.25 53.5467 231.834 53.76C231.429 53.9627 230.864 54.064 230.138 54.064C229.701 54.064 229.312 54.0213 228.97 53.936C228.64 53.8507 228.373 53.7067 228.17 53.504C227.968 53.2907 227.829 53.008 227.754 52.656L227.994 52.496V55.712H226.474ZM229.786 53.2C230.394 53.2 230.832 53.0133 231.098 52.64C231.376 52.2667 231.514 51.6427 231.514 50.768C231.536 49.8933 231.408 49.28 231.13 48.928C230.853 48.576 230.346 48.4 229.61 48.4C229.461 48.4 229.274 48.4053 229.05 48.416C228.837 48.4267 228.634 48.4427 228.442 48.464C228.25 48.4747 228.101 48.4907 227.994 48.512V51.424C227.994 51.904 228.069 52.272 228.218 52.528C228.368 52.784 228.576 52.96 228.842 53.056C229.109 53.152 229.424 53.2 229.786 53.2Z" fill="white"/>
<path d="M215.707 54C215.461 54 215.296 53.9627 215.211 53.888C215.136 53.8133 215.099 53.6533 215.099 53.408V48.064C215.216 48.032 215.365 47.9893 215.547 47.936C215.739 47.8827 215.957 47.8293 216.203 47.776C216.459 47.712 216.736 47.664 217.035 47.632C217.344 47.6 217.664 47.584 217.995 47.584C218.379 47.584 218.709 47.616 218.987 47.68C219.264 47.7333 219.504 47.84 219.707 48C219.909 48.1493 220.075 48.368 220.203 48.656L219.947 48.64C220.032 48.4373 220.16 48.2667 220.331 48.128C220.501 47.9787 220.693 47.8667 220.907 47.792C221.131 47.7067 221.36 47.648 221.595 47.616C221.829 47.584 222.048 47.568 222.251 47.568C222.891 47.568 223.392 47.632 223.755 47.76C224.128 47.8773 224.389 48.08 224.539 48.368C224.699 48.656 224.779 49.0507 224.779 49.552V53.456C224.779 53.68 224.736 53.8293 224.651 53.904C224.576 53.968 224.427 54 224.203 54H223.291C223.291 53.2533 223.291 52.5067 223.291 51.76C223.291 51.0133 223.291 50.2613 223.291 49.504C223.28 49.0453 223.173 48.736 222.971 48.576C222.768 48.416 222.459 48.336 222.043 48.336C221.851 48.336 221.648 48.3627 221.435 48.416C221.232 48.4693 221.056 48.544 220.907 48.64C220.768 48.736 220.699 48.848 220.699 48.976V54H219.195V49.168C219.195 48.912 219.077 48.7147 218.843 48.576C218.608 48.4267 218.304 48.352 217.931 48.352C217.707 48.352 217.499 48.3733 217.307 48.416C217.115 48.448 216.955 48.496 216.827 48.56C216.699 48.624 216.624 48.7093 216.603 48.816V54H215.707Z" fill="white"/>
<path d="M212.82 54.064C212.255 54.064 211.871 53.9307 211.668 53.664C211.466 53.3867 211.364 52.976 211.364 52.432L211.38 47.616H212.868V52.352C212.868 52.7573 212.916 53.0347 213.012 53.184C213.119 53.3333 213.295 53.408 213.54 53.408C213.636 53.408 213.743 53.3973 213.86 53.376C213.978 53.3547 214.052 53.3387 214.084 53.328V53.936C214.042 53.9467 213.972 53.9627 213.876 53.984C213.78 54.0053 213.647 54.0213 213.476 54.032C213.306 54.0533 213.087 54.064 212.82 54.064ZM212.148 46.736C211.903 46.736 211.716 46.704 211.588 46.64C211.471 46.5653 211.412 46.432 211.412 46.24C211.412 46.048 211.471 45.92 211.588 45.856C211.706 45.7813 211.892 45.744 212.148 45.744C212.394 45.744 212.57 45.7813 212.676 45.856C212.794 45.92 212.852 46.048 212.852 46.24C212.852 46.432 212.794 46.5653 212.676 46.64C212.57 46.704 212.394 46.736 212.148 46.736Z" fill="white"/>
<path d="M202.159 52.688C202.393 52.8267 202.697 52.9333 203.071 53.008C203.455 53.072 203.849 53.1147 204.255 53.136C204.66 53.1467 205.012 53.152 205.311 53.152C205.428 53.152 205.561 53.152 205.711 53.152C205.871 53.1413 206.009 53.136 206.127 53.136C206.511 53.1253 206.847 53.0827 207.135 53.008C207.423 52.9227 207.641 52.784 207.791 52.592C207.951 52.4 208.031 52.128 208.031 51.776C208.031 51.3387 207.913 51.056 207.679 50.928C207.455 50.8 207.124 50.736 206.687 50.736C206.537 50.736 206.377 50.736 206.207 50.736C206.036 50.736 205.839 50.736 205.615 50.736C205.401 50.736 205.151 50.736 204.863 50.736C204.543 50.736 204.223 50.72 203.903 50.688C203.583 50.656 203.295 50.5867 203.039 50.48C202.783 50.3627 202.575 50.1813 202.415 49.936C202.255 49.68 202.175 49.3227 202.175 48.864C202.175 48.3307 202.271 47.9093 202.463 47.6C202.655 47.2907 202.921 47.0667 203.263 46.928C203.615 46.7787 204.015 46.6827 204.463 46.64C204.921 46.5973 205.423 46.576 205.967 46.576C206.287 46.576 206.639 46.5813 207.023 46.592C207.407 46.6027 207.775 46.6293 208.127 46.672C208.479 46.704 208.751 46.7627 208.943 46.848C209.167 46.8693 209.337 46.9387 209.455 47.056C209.583 47.1627 209.647 47.3013 209.647 47.472C209.647 47.504 209.647 47.5573 209.647 47.632C209.647 47.7067 209.647 47.776 209.647 47.84C209.647 47.904 209.647 47.952 209.647 47.984C209.561 47.8773 209.401 47.7973 209.167 47.744C208.943 47.68 208.687 47.632 208.399 47.6C208.111 47.568 207.828 47.5467 207.551 47.536C207.284 47.5147 207.055 47.504 206.863 47.504H205.775C205.412 47.504 205.087 47.536 204.799 47.6C204.511 47.6533 204.281 47.7707 204.111 47.952C203.94 48.1227 203.855 48.3893 203.855 48.752C203.855 49.0293 203.908 49.2427 204.015 49.392C204.132 49.5307 204.297 49.6267 204.511 49.68C204.735 49.7227 204.996 49.744 205.295 49.744C205.785 49.744 206.201 49.744 206.543 49.744C206.884 49.744 207.145 49.744 207.327 49.744C207.807 49.744 208.228 49.7867 208.591 49.872C208.964 49.9467 209.252 50.1227 209.455 50.4C209.668 50.6773 209.775 51.1147 209.775 51.712C209.775 52.2773 209.652 52.7307 209.407 53.072C209.161 53.4027 208.825 53.6427 208.399 53.792C207.972 53.9307 207.481 54.016 206.927 54.048C206.596 54.0693 206.276 54.08 205.967 54.08C205.657 54.0907 205.332 54.0907 204.991 54.08C204.681 54.08 204.361 54.0693 204.031 54.048C203.7 54.0267 203.391 53.9893 203.103 53.936C202.825 53.872 202.596 53.7867 202.415 53.68C202.244 53.5733 202.159 53.4293 202.159 53.248V52.688Z" fill="white"/>
<path d="M194.676 55.552C194.815 55.2853 194.943 55.008 195.06 54.72C195.178 54.432 195.279 54.192 195.364 54C195.343 54 195.322 54 195.3 54C195.279 54 195.252 54 195.22 54C195.082 53.9787 194.959 53.936 194.852 53.872C194.756 53.808 194.708 53.6747 194.708 53.472C194.708 53.3013 194.746 53.1787 194.82 53.104C194.895 53.0293 194.996 52.9813 195.124 52.96C195.263 52.9387 195.418 52.928 195.588 52.928C195.834 52.928 196.026 52.9653 196.164 53.04C196.303 53.104 196.372 53.2533 196.372 53.488C196.372 53.6907 196.319 53.9253 196.212 54.192C196.116 54.4693 196.004 54.7307 195.876 54.976C195.748 55.232 195.636 55.424 195.54 55.552H194.676Z" fill="white"/>
<path d="M189.656 54.064C189.454 54.064 189.214 54.0587 188.936 54.048C188.659 54.0373 188.376 54.016 188.088 53.984C187.811 53.9413 187.56 53.8827 187.336 53.808C187.198 53.776 187.086 53.7333 187 53.68C186.926 53.6267 186.867 53.536 186.824 53.408C186.792 53.2693 186.776 53.0613 186.776 52.784C187.043 52.9013 187.342 52.9973 187.672 53.072C188.003 53.136 188.328 53.1787 188.648 53.2C188.979 53.2213 189.262 53.232 189.496 53.232C189.784 53.232 190.067 53.2213 190.344 53.2C190.632 53.1787 190.894 53.1307 191.128 53.056C191.374 52.9813 191.566 52.864 191.704 52.704C191.854 52.544 191.928 52.3253 191.928 52.048C191.928 51.6747 191.832 51.4347 191.64 51.328C191.448 51.2213 191.182 51.168 190.84 51.168H189.16C188.744 51.168 188.355 51.1413 187.992 51.088C187.64 51.0347 187.352 50.896 187.128 50.672C186.915 50.448 186.808 50.0693 186.808 49.536C186.808 48.9493 186.952 48.512 187.24 48.224C187.528 47.936 187.934 47.7493 188.456 47.664C188.99 47.5787 189.614 47.536 190.328 47.536C190.595 47.536 190.904 47.5413 191.256 47.552C191.619 47.5627 191.955 47.5947 192.264 47.648C192.52 47.6693 192.723 47.712 192.872 47.776C193.032 47.8293 193.15 47.9093 193.224 48.016C193.299 48.112 193.336 48.2613 193.336 48.464V48.832C193.24 48.7147 193.075 48.6293 192.84 48.576C192.606 48.512 192.328 48.464 192.008 48.432C191.699 48.4 191.374 48.384 191.032 48.384C190.702 48.3733 190.392 48.368 190.104 48.368C189.795 48.368 189.496 48.3893 189.208 48.432C188.931 48.464 188.707 48.5547 188.536 48.704C188.366 48.8533 188.28 49.0987 188.28 49.44C188.28 49.7067 188.334 49.8987 188.44 50.016C188.547 50.1333 188.696 50.208 188.888 50.24C189.08 50.272 189.299 50.288 189.544 50.288H191.304C191.731 50.288 192.104 50.3253 192.424 50.4C192.744 50.4747 192.995 50.6347 193.176 50.88C193.358 51.1253 193.448 51.5093 193.448 52.032C193.448 52.6293 193.283 53.072 192.952 53.36C192.622 53.648 192.174 53.84 191.608 53.936C191.043 54.0213 190.392 54.064 189.656 54.064Z" fill="white"/>
<path d="M179.719 54C179.42 54 179.271 53.8507 179.271 53.552V48.048C179.591 47.92 180.023 47.808 180.567 47.712C181.111 47.6053 181.729 47.552 182.423 47.552C183.105 47.552 183.649 47.5947 184.055 47.68C184.471 47.7653 184.785 47.904 184.999 48.096C185.212 48.2773 185.351 48.5173 185.415 48.816C185.489 49.1147 185.527 49.4827 185.527 49.92V53.392C185.527 53.5413 185.511 53.664 185.479 53.76C185.457 53.856 185.399 53.92 185.303 53.952C185.217 53.984 185.084 54 184.903 54H184.023V49.6C184.023 49.184 183.895 48.8853 183.639 48.704C183.383 48.5227 182.977 48.432 182.423 48.432C182.252 48.432 182.06 48.448 181.847 48.48C181.633 48.5013 181.431 48.5387 181.239 48.592C181.047 48.6453 180.892 48.7147 180.775 48.8V54H179.719Z" fill="white"/>
<path d="M174.423 54.096C173.889 54.096 173.415 54.0587 172.999 53.984C172.593 53.8987 172.241 53.744 171.943 53.52C171.655 53.296 171.436 52.9653 171.286 52.528C171.137 52.0907 171.062 51.52 171.062 50.816C171.062 50.112 171.137 49.5413 171.286 49.104C171.436 48.6667 171.655 48.336 171.943 48.112C172.241 47.888 172.593 47.7387 172.999 47.664C173.415 47.5787 173.889 47.536 174.423 47.536C174.935 47.536 175.393 47.5787 175.799 47.664C176.214 47.7387 176.566 47.888 176.854 48.112C177.142 48.336 177.361 48.6667 177.511 49.104C177.671 49.5413 177.751 50.112 177.751 50.816C177.751 51.5307 177.671 52.1067 177.511 52.544C177.361 52.9813 177.142 53.312 176.854 53.536C176.566 53.7493 176.214 53.8987 175.799 53.984C175.393 54.0587 174.935 54.096 174.423 54.096ZM174.423 53.296C174.807 53.296 175.132 53.2373 175.398 53.12C175.676 53.0027 175.884 52.768 176.022 52.416C176.161 52.064 176.23 51.5307 176.23 50.816C176.23 50.1013 176.161 49.568 176.022 49.216C175.884 48.864 175.676 48.6293 175.398 48.512C175.132 48.3947 174.807 48.336 174.423 48.336C174.039 48.336 173.708 48.3947 173.431 48.512C173.153 48.6293 172.94 48.864 172.791 49.216C172.652 49.568 172.583 50.1013 172.583 50.816C172.583 51.5307 172.652 52.064 172.791 52.416C172.94 52.768 173.153 53.0027 173.431 53.12C173.708 53.2373 174.039 53.296 174.423 53.296Z" fill="white"/>
<path d="M169.07 54.064C168.505 54.064 168.121 53.9307 167.918 53.664C167.716 53.3867 167.614 52.976 167.614 52.432L167.63 47.616H169.118V52.352C169.118 52.7573 169.166 53.0347 169.262 53.184C169.369 53.3333 169.545 53.408 169.79 53.408C169.886 53.408 169.993 53.3973 170.11 53.376C170.228 53.3547 170.302 53.3387 170.334 53.328V53.936C170.292 53.9467 170.222 53.9627 170.126 53.984C170.03 54.0053 169.897 54.0213 169.726 54.032C169.556 54.0533 169.337 54.064 169.07 54.064ZM168.398 46.736C168.153 46.736 167.966 46.704 167.838 46.64C167.721 46.5653 167.662 46.432 167.662 46.24C167.662 46.048 167.721 45.92 167.838 45.856C167.956 45.7813 168.142 45.744 168.398 45.744C168.644 45.744 168.82 45.7813 168.926 45.856C169.044 45.92 169.102 46.048 169.102 46.24C169.102 46.432 169.044 46.5653 168.926 46.64C168.82 46.704 168.644 46.736 168.398 46.736Z" fill="white"/>
<path d="M165.065 54.048C164.638 54.048 164.302 54 164.057 53.904C163.822 53.808 163.652 53.6373 163.545 53.392C163.438 53.1467 163.385 52.816 163.385 52.4V48.432H162.745V47.616H163.385V46.56C163.385 46.368 163.401 46.2293 163.433 46.144C163.465 46.048 163.518 45.9893 163.593 45.968C163.678 45.936 163.801 45.92 163.961 45.92H164.889C164.889 45.9413 164.889 45.9893 164.889 46.064C164.889 46.128 164.889 46.224 164.889 46.352V47.616H166.393V48.432H164.889V52.256C164.889 52.672 164.932 52.9707 165.017 53.152C165.102 53.3227 165.305 53.408 165.625 53.408C165.732 53.408 165.849 53.3973 165.977 53.376C166.116 53.3547 166.212 53.3333 166.265 53.312V53.936C166.201 53.9467 166.062 53.968 165.849 54C165.636 54.032 165.374 54.048 165.065 54.048Z" fill="white"/>
<path d="M156.709 47.616V51.888C156.709 52.3787 156.842 52.7253 157.109 52.928C157.376 53.1307 157.792 53.232 158.357 53.232C158.965 53.232 159.397 53.1253 159.653 52.912C159.92 52.6987 160.053 52.3573 160.053 51.888V47.616C160.064 47.616 160.106 47.616 160.181 47.616C160.266 47.616 160.357 47.616 160.453 47.616C160.549 47.616 160.64 47.616 160.725 47.616C160.81 47.616 160.864 47.616 160.885 47.616C161.056 47.616 161.189 47.6267 161.285 47.648C161.381 47.6587 161.445 47.7067 161.477 47.792C161.52 47.8667 161.541 47.9947 161.541 48.176V51.664C161.541 52.2293 161.456 52.6933 161.285 53.056C161.114 53.408 160.794 53.6693 160.325 53.84C159.866 54 159.205 54.08 158.341 54.08C157.53 54.08 156.896 54.0107 156.437 53.872C155.989 53.7333 155.669 53.4987 155.477 53.168C155.296 52.8267 155.205 52.3627 155.205 51.776V48.176C155.205 47.952 155.242 47.8027 155.317 47.728C155.392 47.6533 155.541 47.616 155.765 47.616C155.925 47.616 156.08 47.616 156.229 47.616C156.389 47.616 156.549 47.616 156.709 47.616Z" fill="white"/>
<path d="M153.198 54.064C152.633 54.064 152.228 53.952 151.982 53.728C151.737 53.4933 151.614 53.0827 151.614 52.496V46.56C151.614 46.3893 151.625 46.2613 151.646 46.176C151.678 46.08 151.737 46.016 151.822 45.984C151.908 45.9413 152.036 45.92 152.206 45.92H153.134C153.134 45.9413 153.124 46.0267 153.102 46.176C153.092 46.3253 153.086 46.5013 153.086 46.704V52.304C153.086 52.6987 153.134 52.9813 153.23 53.152C153.326 53.3227 153.508 53.408 153.774 53.408C153.86 53.408 153.961 53.3973 154.078 53.376C154.206 53.3547 154.286 53.3387 154.318 53.328V53.936C154.254 53.9467 154.142 53.968 153.982 54C153.822 54.0427 153.561 54.064 153.198 54.064Z" fill="white"/>
<path d="M146.782 54.096C146.249 54.096 145.774 54.0587 145.358 53.984C144.953 53.8987 144.601 53.744 144.302 53.52C144.014 53.296 143.795 52.9653 143.646 52.528C143.497 52.0907 143.422 51.52 143.422 50.816C143.422 50.112 143.497 49.5413 143.646 49.104C143.795 48.6667 144.014 48.336 144.302 48.112C144.601 47.888 144.953 47.7387 145.358 47.664C145.774 47.5787 146.249 47.536 146.782 47.536C147.294 47.536 147.753 47.5787 148.158 47.664C148.574 47.7387 148.926 47.888 149.214 48.112C149.502 48.336 149.721 48.6667 149.87 49.104C150.03 49.5413 150.11 50.112 150.11 50.816C150.11 51.5307 150.03 52.1067 149.87 52.544C149.721 52.9813 149.502 53.312 149.214 53.536C148.926 53.7493 148.574 53.8987 148.158 53.984C147.753 54.0587 147.294 54.096 146.782 54.096ZM146.782 53.296C147.166 53.296 147.491 53.2373 147.758 53.12C148.035 53.0027 148.243 52.768 148.382 52.416C148.521 52.064 148.59 51.5307 148.59 50.816C148.59 50.1013 148.521 49.568 148.382 49.216C148.243 48.864 148.035 48.6293 147.758 48.512C147.491 48.3947 147.166 48.336 146.782 48.336C146.398 48.336 146.067 48.3947 145.79 48.512C145.513 48.6293 145.299 48.864 145.15 49.216C145.011 49.568 144.942 50.1013 144.942 50.816C144.942 51.5307 145.011 52.064 145.15 52.416C145.299 52.768 145.513 53.0027 145.79 53.12C146.067 53.2373 146.398 53.296 146.782 53.296Z" fill="white"/>
<path d="M134.44 52.688C134.675 52.8267 134.979 52.9333 135.352 53.008C135.736 53.072 136.131 53.1147 136.536 53.136C136.941 53.1467 137.293 53.152 137.592 53.152C137.709 53.152 137.843 53.152 137.992 53.152C138.152 53.1413 138.291 53.136 138.408 53.136C138.792 53.1253 139.128 53.0827 139.416 53.008C139.704 52.9227 139.923 52.784 140.072 52.592C140.232 52.4 140.312 52.128 140.312 51.776C140.312 51.3387 140.195 51.056 139.96 50.928C139.736 50.8 139.405 50.736 138.968 50.736C138.819 50.736 138.659 50.736 138.488 50.736C138.317 50.736 138.12 50.736 137.896 50.736C137.683 50.736 137.432 50.736 137.144 50.736C136.824 50.736 136.504 50.72 136.184 50.688C135.864 50.656 135.576 50.5867 135.32 50.48C135.064 50.3627 134.856 50.1813 134.696 49.936C134.536 49.68 134.456 49.3227 134.456 48.864C134.456 48.3307 134.552 47.9093 134.744 47.6C134.936 47.2907 135.203 47.0667 135.544 46.928C135.896 46.7787 136.296 46.6827 136.744 46.64C137.203 46.5973 137.704 46.576 138.248 46.576C138.568 46.576 138.92 46.5813 139.304 46.592C139.688 46.6027 140.056 46.6293 140.408 46.672C140.76 46.704 141.032 46.7627 141.224 46.848C141.448 46.8693 141.619 46.9387 141.736 47.056C141.864 47.1627 141.928 47.3013 141.928 47.472C141.928 47.504 141.928 47.5573 141.928 47.632C141.928 47.7067 141.928 47.776 141.928 47.84C141.928 47.904 141.928 47.952 141.928 47.984C141.843 47.8773 141.683 47.7973 141.448 47.744C141.224 47.68 140.968 47.632 140.68 47.6C140.392 47.568 140.109 47.5467 139.832 47.536C139.565 47.5147 139.336 47.504 139.144 47.504H138.056C137.693 47.504 137.368 47.536 137.08 47.6C136.792 47.6533 136.563 47.7707 136.392 47.952C136.221 48.1227 136.136 48.3893 136.136 48.752C136.136 49.0293 136.189 49.2427 136.296 49.392C136.413 49.5307 136.579 49.6267 136.792 49.68C137.016 49.7227 137.277 49.744 137.576 49.744C138.067 49.744 138.483 49.744 138.824 49.744C139.165 49.744 139.427 49.744 139.608 49.744C140.088 49.744 140.509 49.7867 140.872 49.872C141.245 49.9467 141.533 50.1227 141.736 50.4C141.949 50.6773 142.056 51.1147 142.056 51.712C142.056 52.2773 141.933 52.7307 141.688 53.072C141.443 53.4027 141.107 53.6427 140.68 53.792C140.253 53.9307 139.763 54.016 139.208 54.048C138.877 54.0693 138.557 54.08 138.248 54.08C137.939 54.0907 137.613 54.0907 137.272 54.08C136.963 54.08 136.643 54.0693 136.312 54.048C135.981 54.0267 135.672 53.9893 135.384 53.936C135.107 53.872 134.877 53.7867 134.696 53.68C134.525 53.5733 134.44 53.4293 134.44 53.248V52.688Z" fill="white"/>
<path d="M127.784 54.048C127.357 54.048 127.021 54 126.776 53.904C126.541 53.808 126.371 53.6373 126.264 53.392C126.157 53.1467 126.104 52.816 126.104 52.4V48.432H125.464V47.616H126.104V46.56C126.104 46.368 126.12 46.2293 126.152 46.144C126.184 46.048 126.237 45.9893 126.312 45.968C126.397 45.936 126.52 45.92 126.68 45.92H127.608C127.608 45.9413 127.608 45.9893 127.608 46.064C127.608 46.128 127.608 46.224 127.608 46.352V47.616H129.112V48.432H127.608V52.256C127.608 52.672 127.651 52.9707 127.736 53.152C127.821 53.3227 128.024 53.408 128.344 53.408C128.451 53.408 128.568 53.3973 128.696 53.376C128.835 53.3547 128.931 53.3333 128.984 53.312V53.936C128.92 53.9467 128.781 53.968 128.568 54C128.355 54.032 128.093 54.048 127.784 54.048Z" fill="white"/>
<path d="M120.822 54H119.798C119.638 54 119.515 53.9573 119.43 53.872C119.344 53.7867 119.302 53.6267 119.302 53.392V47.936C119.558 47.8613 119.915 47.7813 120.374 47.696C120.832 47.6107 121.382 47.568 122.022 47.568C122.651 47.568 123.147 47.6107 123.51 47.696C123.872 47.7707 124.139 47.888 124.31 48.048C124.491 48.1973 124.603 48.384 124.646 48.608C124.699 48.8213 124.726 49.072 124.726 49.36H123.286L123.27 49.136C123.27 48.88 123.2 48.6987 123.062 48.592C122.934 48.4747 122.779 48.4 122.598 48.368C122.416 48.336 122.235 48.32 122.054 48.32C121.776 48.32 121.526 48.3467 121.302 48.4C121.088 48.4533 120.928 48.5227 120.822 48.608V54Z" fill="white"/>
<path d="M114.23 54.096C113.568 54.096 113.03 54.064 112.614 54C112.198 53.9467 111.878 53.8453 111.654 53.696C111.43 53.5467 111.275 53.344 111.19 53.088C111.115 52.832 111.078 52.512 111.078 52.128C111.078 51.584 111.136 51.1733 111.254 50.896C111.382 50.608 111.595 50.4107 111.894 50.304C112.203 50.1973 112.614 50.144 113.126 50.144C113.392 50.144 113.686 50.1493 114.006 50.16C114.336 50.1707 114.651 50.1867 114.95 50.208C115.259 50.2187 115.526 50.2347 115.75 50.256C115.984 50.2773 116.139 50.304 116.214 50.336C116.214 49.888 116.176 49.536 116.102 49.28C116.027 49.024 115.904 48.832 115.734 48.704C115.574 48.576 115.371 48.4907 115.126 48.448C114.88 48.4053 114.592 48.384 114.262 48.384C113.899 48.384 113.536 48.3947 113.174 48.416C112.822 48.4373 112.486 48.4747 112.166 48.528C111.856 48.5813 111.6 48.6507 111.398 48.736V48.432C111.398 48.1867 111.462 48.0107 111.59 47.904C111.728 47.7973 111.894 47.728 112.086 47.696C112.299 47.6427 112.614 47.6 113.03 47.568C113.446 47.536 113.888 47.5253 114.358 47.536C114.955 47.536 115.462 47.568 115.878 47.632C116.304 47.6853 116.646 47.8027 116.902 47.984C117.168 48.1653 117.36 48.4373 117.478 48.8C117.606 49.1627 117.67 49.648 117.67 50.256V53.52C117.574 53.7227 117.248 53.872 116.694 53.968C116.139 54.0533 115.318 54.096 114.23 54.096ZM114.23 53.424C114.656 53.424 115.003 53.4133 115.27 53.392C115.547 53.36 115.76 53.3227 115.91 53.28C116.059 53.2267 116.16 53.1627 116.214 53.088V50.88C116.118 50.848 115.947 50.8213 115.702 50.8C115.456 50.768 115.2 50.7413 114.934 50.72C114.667 50.6987 114.443 50.688 114.262 50.688C113.867 50.688 113.547 50.7147 113.302 50.768C113.056 50.8213 112.88 50.944 112.774 51.136C112.667 51.328 112.614 51.6267 112.614 52.032C112.614 52.3627 112.651 52.6293 112.726 52.832C112.8 53.0347 112.95 53.184 113.174 53.28C113.408 53.376 113.76 53.424 114.23 53.424Z" fill="white"/>
<path d="M100.582 54C100.336 54 100.171 53.9627 100.086 53.888C100.011 53.8133 99.9736 53.6533 99.9736 53.408V48.064C100.091 48.032 100.24 47.9893 100.422 47.936C100.614 47.8827 100.832 47.8293 101.078 47.776C101.334 47.712 101.611 47.664 101.91 47.632C102.219 47.6 102.539 47.584 102.87 47.584C103.254 47.584 103.584 47.616 103.862 47.68C104.139 47.7333 104.379 47.84 104.582 48C104.784 48.1493 104.95 48.368 105.078 48.656L104.822 48.64C104.907 48.4373 105.035 48.2667 105.206 48.128C105.376 47.9787 105.568 47.8667 105.782 47.792C106.006 47.7067 106.235 47.648 106.47 47.616C106.704 47.584 106.923 47.568 107.126 47.568C107.766 47.568 108.267 47.632 108.63 47.76C109.003 47.8773 109.264 48.08 109.414 48.368C109.574 48.656 109.654 49.0507 109.654 49.552V53.456C109.654 53.68 109.611 53.8293 109.526 53.904C109.451 53.968 109.302 54 109.078 54H108.166C108.166 53.2533 108.166 52.5067 108.166 51.76C108.166 51.0133 108.166 50.2613 108.166 49.504C108.155 49.0453 108.048 48.736 107.846 48.576C107.643 48.416 107.334 48.336 106.918 48.336C106.726 48.336 106.523 48.3627 106.31 48.416C106.107 48.4693 105.931 48.544 105.782 48.64C105.643 48.736 105.574 48.848 105.574 48.976V54H104.07V49.168C104.07 48.912 103.952 48.7147 103.718 48.576C103.483 48.4267 103.179 48.352 102.806 48.352C102.582 48.352 102.374 48.3733 102.182 48.416C101.99 48.448 101.83 48.496 101.702 48.56C101.574 48.624 101.499 48.7093 101.478 48.816V54H100.582Z" fill="white"/>
<path d="M90.7681 52.688C91.0027 52.8267 91.3067 52.9333 91.6801 53.008C92.0641 53.072 92.4587 53.1147 92.8641 53.136C93.2694 53.1467 93.6214 53.152 93.9201 53.152C94.0374 53.152 94.1707 53.152 94.3201 53.152C94.4801 53.1413 94.6187 53.136 94.7361 53.136C95.1201 53.1253 95.4561 53.0827 95.7441 53.008C96.0321 52.9227 96.2507 52.784 96.4001 52.592C96.5601 52.4 96.6401 52.128 96.6401 51.776C96.6401 51.3387 96.5227 51.056 96.2881 50.928C96.0641 50.8 95.7334 50.736 95.2961 50.736C95.1467 50.736 94.9867 50.736 94.8161 50.736C94.6454 50.736 94.4481 50.736 94.2241 50.736C94.0107 50.736 93.7601 50.736 93.4721 50.736C93.1521 50.736 92.8321 50.72 92.5121 50.688C92.1921 50.656 91.9041 50.5867 91.6481 50.48C91.3921 50.3627 91.1841 50.1813 91.0241 49.936C90.8641 49.68 90.7841 49.3227 90.7841 48.864C90.7841 48.3307 90.8801 47.9093 91.0721 47.6C91.2641 47.2907 91.5307 47.0667 91.8721 46.928C92.2241 46.7787 92.6241 46.6827 93.0721 46.64C93.5307 46.5973 94.0321 46.576 94.5761 46.576C94.8961 46.576 95.2481 46.5813 95.6321 46.592C96.0161 46.6027 96.3841 46.6293 96.7361 46.672C97.0881 46.704 97.3601 46.7627 97.5521 46.848C97.7761 46.8693 97.9467 46.9387 98.0641 47.056C98.1921 47.1627 98.2561 47.3013 98.2561 47.472C98.2561 47.504 98.2561 47.5573 98.2561 47.632C98.2561 47.7067 98.2561 47.776 98.2561 47.84C98.2561 47.904 98.2561 47.952 98.2561 47.984C98.1707 47.8773 98.0107 47.7973 97.7761 47.744C97.5521 47.68 97.2961 47.632 97.0081 47.6C96.7201 47.568 96.4374 47.5467 96.1601 47.536C95.8934 47.5147 95.6641 47.504 95.4721 47.504H94.3841C94.0214 47.504 93.6961 47.536 93.4081 47.6C93.1201 47.6533 92.8907 47.7707 92.7201 47.952C92.5494 48.1227 92.4641 48.3893 92.4641 48.752C92.4641 49.0293 92.5174 49.2427 92.6241 49.392C92.7414 49.5307 92.9067 49.6267 93.1201 49.68C93.3441 49.7227 93.6054 49.744 93.9041 49.744C94.3947 49.744 94.8107 49.744 95.1521 49.744C95.4934 49.744 95.7547 49.744 95.9361 49.744C96.4161 49.744 96.8374 49.7867 97.2001 49.872C97.5734 49.9467 97.8614 50.1227 98.0641 50.4C98.2774 50.6773 98.3841 51.1147 98.3841 51.712C98.3841 52.2773 98.2614 52.7307 98.0161 53.072C97.7707 53.4027 97.4347 53.6427 97.0081 53.792C96.5814 53.9307 96.0907 54.016 95.5361 54.048C95.2054 54.0693 94.8854 54.08 94.5761 54.08C94.2667 54.0907 93.9414 54.0907 93.6001 54.08C93.2907 54.08 92.9707 54.0693 92.6401 54.048C92.3094 54.0267 92.0001 53.9893 91.7121 53.936C91.4347 53.872 91.2054 53.7867 91.0241 53.68C90.8534 53.5733 90.7681 53.4293 90.7681 53.248V52.688Z" fill="white"/>
<g clip-path="url(#clip0_6_960)">
<mask id="mask0_6_960" style="mask-type:luminance" maskUnits="userSpaceOnUse" x="0" y="0" width="55" height="68">
<path d="M8.11923 32.5517L26.7302 20.1626L44.8066 8.12931C45.3555 7.76405 46.0144 7.73223 46.596 8.04281C47.1777 8.35384 47.5166 8.91853 47.5166 9.57734V15.7921L54.8598 10.9039V9.57734C54.8598 6.21474 53.0299 3.16451 50.061 1.578C47.1082 -4.76837e-07 43.5202 0.17344 40.7335 2.02841L4.04615 26.4508C1.50356 28.1436 0 30.9487 0 33.9998C0 37.0509 1.50356 39.8564 4.04615 41.5487L40.7339 65.9711C43.5207 67.8261 47.1082 67.9995 50.0614 66.4215C53.0308 64.835 54.8602 61.7848 54.8602 58.4222V57.0956L47.517 52.2075V58.4222C47.517 59.081 47.1782 59.6462 46.5965 59.9567C46.0148 60.2678 45.3559 60.2359 44.807 59.8702L26.7306 47.8369L8.11968 35.4478C7.62014 35.1153 7.34366 34.5994 7.34366 33.9993C7.34366 33.3992 7.62014 32.8838 8.11968 32.5508" fill="white"/>
</mask>
<g mask="url(#mask0_6_960)">
<path d="M54.8602 0H0V68H54.8602V0Z" fill="url(#paint0_linear_6_960)"/>
</g>
<mask id="mask1_6_960" style="mask-type:luminance" maskUnits="userSpaceOnUse" x="30" y="3" width="39" height="62">
<path d="M68.9999 3.3653L34.3206 26.4508C31.778 28.1431 30.2744 30.9487 30.2744 33.9998C30.2744 37.0509 31.778 39.8564 34.3206 41.5487L68.9999 64.6343V55.822L57.005 47.837L38.3941 35.4478C37.8946 35.1153 37.6181 34.5994 37.6181 33.9993C37.6181 33.3992 37.8946 32.8838 38.3941 32.5509L57.005 20.1617L68.9999 12.1767V3.3653Z" fill="white"/>
</mask>
<g mask="url(#mask1_6_960)">
<path d="M69.0004 3.3653H30.2749V64.6347H69.0004V3.3653Z" fill="url(#paint1_linear_6_960)"/>
</g>
</g>
<defs>
<linearGradient id="paint0_linear_6_960" x1="5.99136" y1="56.8778" x2="64.242" y2="-5.46538" gradientUnits="userSpaceOnUse">
<stop stop-color="#0463EF"/>
<stop offset="0.44" stop-color="#FE42CF"/>
<stop offset="1" stop-color="#FFFF00"/>
</linearGradient>
<linearGradient id="paint1_linear_6_960" x1="33.2623" y1="58.1959" x2="79.8834" y2="-10.8924" gradientUnits="userSpaceOnUse">
<stop stop-color="#1757FB"/>
<stop offset="0.42" stop-color="#2193FC"/>
<stop offset="0.81" stop-color="#29C6FE"/>
<stop offset="1" stop-color="#2DDAFF"/>
</linearGradient>
<clipPath id="clip0_6_960">
<rect width="69" height="68" fill="white"/>
</clipPath>
</defs>
</svg>
