<svg width="211" height="11" viewBox="0 0 211 11" fill="none" xmlns="http://www.w3.org/2000/svg">
<path d="M208.543 8.47198C208.543 8.22665 208.623 8.07731 208.783 8.02398C208.943 7.95998 209.135 7.92798 209.359 7.92798C209.583 7.92798 209.764 7.95998 209.903 8.02398C210.052 8.07731 210.127 8.22665 210.127 8.47198C210.127 8.64265 210.09 8.77065 210.015 8.85598C209.951 8.93065 209.86 8.97865 209.743 8.99998C209.626 9.02131 209.492 9.03198 209.343 9.03198C209.194 9.03198 209.06 9.02131 208.943 8.99998C208.826 8.97865 208.73 8.93065 208.655 8.85598C208.58 8.77065 208.543 8.64265 208.543 8.47198Z" fill="white"/>
<path d="M203.751 9.096C203.101 9.096 202.552 9.05334 202.104 8.968C201.666 8.88267 201.314 8.72267 201.048 8.488C200.792 8.25334 200.61 7.928 200.503 7.512C200.397 7.096 200.344 6.55734 200.344 5.896C200.344 5.10667 200.445 4.46667 200.648 3.976C200.85 3.48534 201.207 3.128 201.719 2.904C202.242 2.66934 202.968 2.552 203.896 2.552C204.621 2.552 205.197 2.64267 205.624 2.824C206.061 2.99467 206.376 3.26667 206.568 3.64C206.76 4.01334 206.855 4.488 206.855 5.064V6.088H202.359C202.359 5.91734 202.397 5.77867 202.471 5.672C202.546 5.56534 202.685 5.512 202.887 5.512H205.512L205.495 5.096C205.485 4.49867 205.357 4.06134 205.111 3.784C204.877 3.50667 204.45 3.368 203.831 3.368C203.319 3.368 202.92 3.448 202.632 3.608C202.344 3.768 202.141 4.02934 202.023 4.392C201.906 4.744 201.848 5.23467 201.848 5.864C201.848 6.51467 201.912 7.01067 202.04 7.352C202.178 7.68267 202.402 7.90667 202.712 8.024C203.032 8.14134 203.474 8.2 204.04 8.2C204.242 8.2 204.477 8.19467 204.743 8.184C205.021 8.17334 205.298 8.15734 205.576 8.136C205.864 8.11467 206.12 8.088 206.344 8.056C206.568 8.024 206.717 7.992 206.792 7.96V8.184C206.792 8.30134 206.765 8.41867 206.712 8.536C206.658 8.65334 206.546 8.74934 206.376 8.824C206.152 8.93067 205.821 9 205.383 9.032C204.957 9.07467 204.413 9.096 203.751 9.096Z" fill="white"/>
<path d="M196.803 9.09602C195.939 9.09602 195.24 9.01069 194.707 8.84002C194.174 8.66935 193.79 8.35469 193.555 7.89602C193.32 7.43735 193.203 6.76535 193.203 5.88002C193.203 4.96269 193.32 4.26402 193.555 3.78402C193.79 3.29335 194.174 2.96269 194.707 2.79202C195.24 2.61069 195.939 2.52002 196.803 2.52002C197.08 2.52002 197.342 2.53069 197.587 2.55202C197.843 2.57335 198.136 2.61069 198.467 2.66402C198.648 2.68535 198.792 2.72802 198.899 2.79202C199.016 2.85602 199.102 2.95202 199.155 3.08002C199.208 3.19735 199.235 3.37335 199.235 3.60802C199.107 3.55469 198.92 3.50669 198.675 3.46402C198.43 3.42135 198.168 3.38935 197.891 3.36802C197.614 3.34669 197.368 3.33602 197.155 3.33602C196.547 3.33602 196.062 3.41602 195.699 3.57602C195.347 3.72535 195.096 3.97602 194.947 4.32802C194.808 4.68002 194.739 5.16535 194.739 5.78402C194.739 6.40269 194.808 6.89335 194.947 7.25602C195.096 7.61869 195.347 7.87469 195.699 8.02402C196.051 8.17335 196.536 8.24802 197.155 8.24802C197.443 8.24802 197.72 8.23735 197.987 8.21602C198.254 8.18402 198.494 8.14669 198.707 8.10402C198.931 8.05069 199.107 8.00269 199.235 7.96002V8.39202C199.235 8.58402 199.128 8.73335 198.915 8.84002C198.702 8.93602 198.414 9.00002 198.051 9.03202C197.699 9.07469 197.283 9.09602 196.803 9.09602Z" fill="white"/>
<path d="M191.211 9.0639C190.646 9.0639 190.262 8.93056 190.059 8.6639C189.856 8.38656 189.755 7.9759 189.755 7.4319L189.771 2.6159H191.259V7.3519C191.259 7.75723 191.307 8.03456 191.403 8.1839C191.51 8.33323 191.686 8.4079 191.931 8.4079C192.027 8.4079 192.134 8.39723 192.251 8.3759C192.368 8.35456 192.443 8.33856 192.475 8.3279V8.9359C192.432 8.94656 192.363 8.96256 192.267 8.9839C192.171 9.00523 192.038 9.02123 191.867 9.0319C191.696 9.05323 191.478 9.0639 191.211 9.0639ZM190.539 1.7359C190.294 1.7359 190.107 1.7039 189.979 1.6399C189.862 1.56523 189.803 1.4319 189.803 1.2399C189.803 1.0479 189.862 0.919897 189.979 0.855897C190.096 0.78123 190.283 0.743896 190.539 0.743896C190.784 0.743896 190.96 0.78123 191.067 0.855897C191.184 0.919897 191.243 1.0479 191.243 1.2399C191.243 1.4319 191.184 1.56523 191.067 1.6399C190.96 1.7039 190.784 1.7359 190.539 1.7359Z" fill="white"/>
<path d="M185.633 8.99997C185.452 8.99997 185.297 8.97863 185.169 8.93597C185.041 8.8933 184.929 8.8133 184.833 8.69597C184.748 8.56797 184.662 8.3973 184.577 8.18397L182.625 2.61597H184.177L185.505 6.80797C185.58 7.0533 185.665 7.21863 185.761 7.30397C185.857 7.3893 186.038 7.43197 186.305 7.43197C186.529 6.69597 186.742 5.95997 186.945 5.22397C187.158 4.48797 187.377 3.7573 187.601 3.03197C187.633 2.90397 187.686 2.80263 187.761 2.72797C187.846 2.6533 187.974 2.61597 188.145 2.61597H188.721L186.577 8.99997H185.633Z" fill="white"/>
<path d="M178.431 8.99987H177.407C177.247 8.99987 177.124 8.9572 177.039 8.87187C176.954 8.78654 176.911 8.62654 176.911 8.39187V2.93587C177.167 2.8612 177.524 2.7812 177.983 2.69587C178.442 2.61054 178.991 2.56787 179.631 2.56787C180.26 2.56787 180.756 2.61054 181.119 2.69587C181.482 2.77054 181.748 2.88787 181.919 3.04787C182.1 3.1972 182.212 3.38387 182.255 3.60787C182.308 3.8212 182.335 4.07187 182.335 4.35987H180.895L180.879 4.13587C180.879 3.87987 180.81 3.69854 180.671 3.59187C180.543 3.47454 180.388 3.39987 180.207 3.36787C180.026 3.33587 179.844 3.31987 179.663 3.31987C179.386 3.31987 179.135 3.34654 178.911 3.39987C178.698 3.4532 178.538 3.52254 178.431 3.60787V8.99987Z" fill="white"/>
<path d="M172.408 9.096C171.757 9.096 171.208 9.05334 170.76 8.968C170.322 8.88267 169.97 8.72267 169.704 8.488C169.448 8.25334 169.266 7.928 169.16 7.512C169.053 7.096 169 6.55734 169 5.896C169 5.10667 169.101 4.46667 169.304 3.976C169.506 3.48534 169.864 3.128 170.376 2.904C170.898 2.66934 171.624 2.552 172.552 2.552C173.277 2.552 173.853 2.64267 174.28 2.824C174.717 2.99467 175.032 3.26667 175.224 3.64C175.416 4.01334 175.512 4.488 175.512 5.064V6.088H171.016C171.016 5.91734 171.053 5.77867 171.128 5.672C171.202 5.56534 171.341 5.512 171.544 5.512H174.168L174.152 5.096C174.141 4.49867 174.013 4.06134 173.768 3.784C173.533 3.50667 173.106 3.368 172.488 3.368C171.976 3.368 171.576 3.448 171.288 3.608C171 3.768 170.797 4.02934 170.68 4.392C170.562 4.744 170.504 5.23467 170.504 5.864C170.504 6.51467 170.568 7.01067 170.696 7.352C170.834 7.68267 171.058 7.90667 171.368 8.024C171.688 8.14134 172.13 8.2 172.696 8.2C172.898 8.2 173.133 8.19467 173.4 8.184C173.677 8.17334 173.954 8.15734 174.232 8.136C174.52 8.11467 174.776 8.088 175 8.056C175.224 8.024 175.373 7.992 175.448 7.96V8.184C175.448 8.30134 175.421 8.41867 175.368 8.536C175.314 8.65334 175.202 8.74934 175.032 8.824C174.808 8.93067 174.477 9 174.04 9.032C173.613 9.07467 173.069 9.096 172.408 9.096Z" fill="white"/>
<path d="M160.018 7.68793C160.253 7.82659 160.557 7.93326 160.93 8.00793C161.314 8.07193 161.709 8.11459 162.114 8.13593C162.519 8.14659 162.871 8.15193 163.17 8.15193C163.287 8.15193 163.421 8.15193 163.57 8.15193C163.73 8.14126 163.869 8.13593 163.986 8.13593C164.37 8.12526 164.706 8.08259 164.994 8.00793C165.282 7.9226 165.501 7.78393 165.65 7.59193C165.81 7.39993 165.89 7.12793 165.89 6.77593C165.89 6.33859 165.773 6.05593 165.538 5.92793C165.314 5.79993 164.983 5.73593 164.546 5.73593C164.397 5.73593 164.237 5.73593 164.066 5.73593C163.895 5.73593 163.698 5.73593 163.474 5.73593C163.261 5.73593 163.01 5.73593 162.722 5.73593C162.402 5.73593 162.082 5.71993 161.762 5.68793C161.442 5.65593 161.154 5.58659 160.898 5.47993C160.642 5.36259 160.434 5.18126 160.274 4.93593C160.114 4.67993 160.034 4.32259 160.034 3.86393C160.034 3.33059 160.13 2.90926 160.322 2.59993C160.514 2.29059 160.781 2.06659 161.122 1.92793C161.474 1.77859 161.874 1.68259 162.322 1.63993C162.781 1.59726 163.282 1.57593 163.826 1.57593C164.146 1.57593 164.498 1.58126 164.882 1.59193C165.266 1.60259 165.634 1.62926 165.986 1.67193C166.338 1.70393 166.61 1.76259 166.802 1.84793C167.026 1.86926 167.197 1.93859 167.314 2.05593C167.442 2.16259 167.506 2.30126 167.506 2.47193C167.506 2.50393 167.506 2.55726 167.506 2.63193C167.506 2.70659 167.506 2.77593 167.506 2.83993C167.506 2.90393 167.506 2.95193 167.506 2.98393C167.421 2.87726 167.261 2.79726 167.026 2.74393C166.802 2.67993 166.546 2.63193 166.258 2.59993C165.97 2.56793 165.687 2.54659 165.41 2.53593C165.143 2.51459 164.914 2.50393 164.722 2.50393H163.634C163.271 2.50393 162.946 2.53593 162.658 2.59993C162.37 2.65326 162.141 2.77059 161.97 2.95193C161.799 3.12259 161.714 3.38926 161.714 3.75193C161.714 4.02926 161.767 4.24259 161.874 4.39193C161.991 4.5306 162.157 4.6266 162.37 4.67993C162.594 4.72259 162.855 4.74393 163.154 4.74393C163.645 4.74393 164.061 4.74393 164.402 4.74393C164.743 4.74393 165.005 4.74393 165.186 4.74393C165.666 4.74393 166.087 4.78659 166.45 4.87193C166.823 4.94659 167.111 5.12259 167.314 5.39993C167.527 5.67726 167.634 6.11459 167.634 6.71193C167.634 7.27726 167.511 7.73059 167.266 8.07193C167.021 8.40259 166.685 8.64259 166.258 8.79193C165.831 8.93059 165.341 9.01593 164.786 9.04793C164.455 9.06926 164.135 9.07993 163.826 9.07993C163.517 9.09059 163.191 9.09059 162.85 9.07993C162.541 9.07993 162.221 9.06926 161.89 9.04793C161.559 9.0266 161.25 8.98926 160.962 8.93593C160.685 8.87193 160.455 8.78659 160.274 8.67993C160.103 8.57326 160.018 8.42926 160.018 8.24793V7.68793Z" fill="white"/>
<path d="M151.408 9.096C150.757 9.096 150.208 9.05334 149.76 8.968C149.322 8.88267 148.97 8.72267 148.704 8.488C148.448 8.25334 148.266 7.928 148.16 7.512C148.053 7.096 148 6.55734 148 5.896C148 5.10667 148.101 4.46667 148.304 3.976C148.506 3.48534 148.864 3.128 149.376 2.904C149.898 2.66934 150.624 2.552 151.552 2.552C152.277 2.552 152.853 2.64267 153.28 2.824C153.717 2.99467 154.032 3.26667 154.224 3.64C154.416 4.01334 154.512 4.488 154.512 5.064V6.088H150.016C150.016 5.91734 150.053 5.77867 150.128 5.672C150.202 5.56534 150.341 5.512 150.544 5.512H153.168L153.152 5.096C153.141 4.49867 153.013 4.06134 152.768 3.784C152.533 3.50667 152.106 3.368 151.488 3.368C150.976 3.368 150.576 3.448 150.288 3.608C150 3.768 149.797 4.02934 149.68 4.392C149.562 4.744 149.504 5.23467 149.504 5.864C149.504 6.51467 149.568 7.01067 149.696 7.352C149.834 7.68267 150.058 7.90667 150.368 8.024C150.688 8.14134 151.13 8.2 151.696 8.2C151.898 8.2 152.133 8.19467 152.4 8.184C152.677 8.17334 152.954 8.15734 153.232 8.136C153.52 8.11467 153.776 8.088 154 8.056C154.224 8.024 154.373 7.992 154.448 7.96V8.184C154.448 8.30134 154.421 8.41867 154.368 8.536C154.314 8.65334 154.202 8.74934 154.032 8.824C153.808 8.93067 153.477 9 153.04 9.032C152.613 9.07467 152.069 9.096 151.408 9.096Z" fill="white"/>
<path d="M146.151 9.06392C145.586 9.06392 145.18 8.95192 144.935 8.72792C144.69 8.49325 144.567 8.08259 144.567 7.49592V1.55992C144.567 1.38925 144.578 1.26125 144.599 1.17592C144.631 1.07992 144.69 1.01592 144.775 0.983921C144.86 0.941255 144.988 0.919922 145.159 0.919922H146.087C146.087 0.941255 146.076 1.02659 146.055 1.17592C146.044 1.32525 146.039 1.50125 146.039 1.70392V7.30392C146.039 7.69859 146.087 7.98126 146.183 8.15192C146.279 8.32259 146.46 8.40792 146.727 8.40792C146.812 8.40792 146.914 8.39726 147.031 8.37592C147.159 8.35459 147.239 8.33859 147.271 8.32792V8.93592C147.207 8.94659 147.095 8.96792 146.935 8.99992C146.775 9.04259 146.514 9.06392 146.151 9.06392Z" fill="white"/>
<path d="M136.474 10.7119L136.49 3.91187C136.49 3.63454 136.485 3.3892 136.474 3.17587C136.474 2.96254 136.464 2.82387 136.442 2.75987C136.528 2.73854 136.688 2.7172 136.922 2.69587C137.168 2.67454 137.445 2.65854 137.754 2.64787C138.064 2.62654 138.378 2.61054 138.698 2.59987C139.029 2.57854 139.322 2.56787 139.578 2.56787C140.485 2.56787 141.189 2.67987 141.69 2.90387C142.202 3.12787 142.56 3.4852 142.762 3.97587C142.976 4.45587 143.072 5.09054 143.05 5.87987C143.018 6.65854 142.912 7.28254 142.73 7.75187C142.549 8.21054 142.25 8.54654 141.834 8.75987C141.429 8.96254 140.864 9.06387 140.138 9.06387C139.701 9.06387 139.312 9.0212 138.97 8.93587C138.64 8.85054 138.373 8.70654 138.17 8.50387C137.968 8.29054 137.829 8.00787 137.754 7.65587L137.994 7.49587V10.7119H136.474ZM139.786 8.19987C140.394 8.19987 140.832 8.01321 141.098 7.63987C141.376 7.26654 141.514 6.64254 141.514 5.76787C141.536 4.8932 141.408 4.27987 141.13 3.92787C140.853 3.57587 140.346 3.39987 139.61 3.39987C139.461 3.39987 139.274 3.4052 139.05 3.41587C138.837 3.42654 138.634 3.44254 138.442 3.46387C138.25 3.47454 138.101 3.49054 137.994 3.51187V6.42387C137.994 6.90387 138.069 7.27187 138.218 7.52787C138.368 7.78387 138.576 7.95987 138.842 8.05587C139.109 8.15187 139.424 8.19987 139.786 8.19987Z" fill="white"/>
<path d="M125.707 8.99987C125.461 8.99987 125.296 8.96254 125.211 8.88787C125.136 8.8132 125.099 8.6532 125.099 8.40787V3.06387C125.216 3.03187 125.365 2.9892 125.547 2.93587C125.739 2.88254 125.957 2.8292 126.203 2.77587C126.459 2.71187 126.736 2.66387 127.035 2.63187C127.344 2.59987 127.664 2.58387 127.995 2.58387C128.379 2.58387 128.709 2.61587 128.987 2.67987C129.264 2.7332 129.504 2.83987 129.707 2.99987C129.909 3.1492 130.075 3.36787 130.203 3.65587L129.947 3.63987C130.032 3.4372 130.16 3.26654 130.331 3.12787C130.501 2.97854 130.693 2.86654 130.907 2.79187C131.131 2.70654 131.36 2.64787 131.595 2.61587C131.829 2.58387 132.048 2.56787 132.251 2.56787C132.891 2.56787 133.392 2.63187 133.755 2.75987C134.128 2.8772 134.389 3.07987 134.539 3.36787C134.699 3.65587 134.779 4.05054 134.779 4.55187V8.45587C134.779 8.67987 134.736 8.82921 134.651 8.90387C134.576 8.96787 134.427 8.99987 134.203 8.99987H133.291C133.291 8.2532 133.291 7.50654 133.291 6.75987C133.291 6.0132 133.291 5.2612 133.291 4.50387C133.28 4.0452 133.173 3.73587 132.971 3.57587C132.768 3.41587 132.459 3.33587 132.043 3.33587C131.851 3.33587 131.648 3.36254 131.435 3.41587C131.232 3.4692 131.056 3.54387 130.907 3.63987C130.768 3.73587 130.699 3.84787 130.699 3.97587V8.99987H129.195V4.16787C129.195 3.91187 129.077 3.71454 128.843 3.57587C128.608 3.42654 128.304 3.35187 127.931 3.35187C127.707 3.35187 127.499 3.3732 127.307 3.41587C127.115 3.44787 126.955 3.49587 126.827 3.55987C126.699 3.62387 126.624 3.7092 126.603 3.81587V8.99987H125.707Z" fill="white"/>
<path d="M122.82 9.0639C122.255 9.0639 121.871 8.93056 121.668 8.6639C121.466 8.38656 121.364 7.9759 121.364 7.4319L121.38 2.6159H122.868V7.3519C122.868 7.75723 122.916 8.03456 123.012 8.1839C123.119 8.33323 123.295 8.4079 123.54 8.4079C123.636 8.4079 123.743 8.39723 123.86 8.3759C123.978 8.35456 124.052 8.33856 124.084 8.3279V8.9359C124.042 8.94656 123.972 8.96256 123.876 8.9839C123.78 9.00523 123.647 9.02123 123.476 9.0319C123.306 9.05323 123.087 9.0639 122.82 9.0639ZM122.148 1.7359C121.903 1.7359 121.716 1.7039 121.588 1.6399C121.471 1.56523 121.412 1.4319 121.412 1.2399C121.412 1.0479 121.471 0.919897 121.588 0.855897C121.706 0.78123 121.892 0.743896 122.148 0.743896C122.394 0.743896 122.57 0.78123 122.676 0.855897C122.794 0.919897 122.852 1.0479 122.852 1.2399C122.852 1.4319 122.794 1.56523 122.676 1.6399C122.57 1.7039 122.394 1.7359 122.148 1.7359Z" fill="white"/>
<path d="M112.159 7.68793C112.393 7.82659 112.697 7.93326 113.071 8.00793C113.455 8.07193 113.849 8.11459 114.255 8.13593C114.66 8.14659 115.012 8.15193 115.311 8.15193C115.428 8.15193 115.561 8.15193 115.711 8.15193C115.871 8.14126 116.009 8.13593 116.127 8.13593C116.511 8.12526 116.847 8.08259 117.135 8.00793C117.423 7.9226 117.641 7.78393 117.791 7.59193C117.951 7.39993 118.031 7.12793 118.031 6.77593C118.031 6.33859 117.913 6.05593 117.679 5.92793C117.455 5.79993 117.124 5.73593 116.687 5.73593C116.537 5.73593 116.377 5.73593 116.207 5.73593C116.036 5.73593 115.839 5.73593 115.615 5.73593C115.401 5.73593 115.151 5.73593 114.863 5.73593C114.543 5.73593 114.223 5.71993 113.903 5.68793C113.583 5.65593 113.295 5.58659 113.039 5.47993C112.783 5.36259 112.575 5.18126 112.415 4.93593C112.255 4.67993 112.175 4.32259 112.175 3.86393C112.175 3.33059 112.271 2.90926 112.463 2.59993C112.655 2.29059 112.921 2.06659 113.263 1.92793C113.615 1.77859 114.015 1.68259 114.463 1.63993C114.921 1.59726 115.423 1.57593 115.967 1.57593C116.287 1.57593 116.639 1.58126 117.023 1.59193C117.407 1.60259 117.775 1.62926 118.127 1.67193C118.479 1.70393 118.751 1.76259 118.943 1.84793C119.167 1.86926 119.337 1.93859 119.455 2.05593C119.583 2.16259 119.647 2.30126 119.647 2.47193C119.647 2.50393 119.647 2.55726 119.647 2.63193C119.647 2.70659 119.647 2.77593 119.647 2.83993C119.647 2.90393 119.647 2.95193 119.647 2.98393C119.561 2.87726 119.401 2.79726 119.167 2.74393C118.943 2.67993 118.687 2.63193 118.399 2.59993C118.111 2.56793 117.828 2.54659 117.551 2.53593C117.284 2.51459 117.055 2.50393 116.863 2.50393H115.775C115.412 2.50393 115.087 2.53593 114.799 2.59993C114.511 2.65326 114.281 2.77059 114.111 2.95193C113.94 3.12259 113.855 3.38926 113.855 3.75193C113.855 4.02926 113.908 4.24259 114.015 4.39193C114.132 4.5306 114.297 4.6266 114.511 4.67993C114.735 4.72259 114.996 4.74393 115.295 4.74393C115.785 4.74393 116.201 4.74393 116.543 4.74393C116.884 4.74393 117.145 4.74393 117.327 4.74393C117.807 4.74393 118.228 4.78659 118.591 4.87193C118.964 4.94659 119.252 5.12259 119.455 5.39993C119.668 5.67726 119.775 6.11459 119.775 6.71193C119.775 7.27726 119.652 7.73059 119.407 8.07193C119.161 8.40259 118.825 8.64259 118.399 8.79193C117.972 8.93059 117.481 9.01593 116.927 9.04793C116.596 9.06926 116.276 9.07993 115.967 9.07993C115.657 9.09059 115.332 9.09059 114.991 9.07993C114.681 9.07993 114.361 9.06926 114.031 9.04793C113.7 9.0266 113.391 8.98926 113.103 8.93593C112.825 8.87193 112.596 8.78659 112.415 8.67993C112.244 8.57326 112.159 8.42926 112.159 8.24793V7.68793Z" fill="white"/>
<path d="M104.676 10.552C104.815 10.2853 104.943 10.008 105.06 9.71998C105.177 9.43198 105.279 9.19198 105.364 8.99998C105.343 8.99998 105.321 8.99998 105.3 8.99998C105.279 8.99998 105.252 8.99998 105.22 8.99998C105.081 8.97865 104.959 8.93598 104.852 8.87198C104.756 8.80798 104.708 8.67465 104.708 8.47198C104.708 8.30131 104.745 8.17865 104.82 8.10398C104.895 8.02931 104.996 7.98131 105.124 7.95998C105.263 7.93865 105.417 7.92798 105.588 7.92798C105.833 7.92798 106.025 7.96531 106.164 8.03998C106.303 8.10398 106.372 8.25331 106.372 8.48798C106.372 8.69065 106.319 8.92531 106.212 9.19198C106.116 9.46931 106.004 9.73065 105.876 9.97598C105.748 10.232 105.636 10.424 105.54 10.552H104.676Z" fill="white"/>
<path d="M99.6565 9.06389C99.4538 9.06389 99.2138 9.05856 98.9365 9.04789C98.6592 9.03722 98.3765 9.01589 98.0885 8.98389C97.8112 8.94122 97.5605 8.88256 97.3365 8.80789C97.1978 8.77589 97.0858 8.73322 97.0005 8.67989C96.9258 8.62656 96.8672 8.53589 96.8245 8.40789C96.7925 8.26922 96.7765 8.06122 96.7765 7.78389C97.0432 7.90122 97.3418 7.99722 97.6725 8.07189C98.0032 8.13589 98.3285 8.17856 98.6485 8.19989C98.9792 8.22122 99.2618 8.23189 99.4965 8.23189C99.7845 8.23189 100.067 8.22122 100.344 8.19989C100.632 8.17856 100.894 8.13056 101.128 8.05589C101.374 7.98122 101.566 7.86389 101.704 7.70389C101.854 7.54389 101.928 7.32522 101.928 7.04789C101.928 6.67456 101.832 6.43456 101.64 6.32789C101.448 6.22122 101.182 6.16789 100.84 6.16789H99.1605C98.7445 6.16789 98.3552 6.14122 97.9925 6.08789C97.6405 6.03455 97.3525 5.89589 97.1285 5.67189C96.9152 5.44789 96.8085 5.06922 96.8085 4.53589C96.8085 3.94922 96.9525 3.51189 97.2405 3.22389C97.5285 2.93589 97.9338 2.74922 98.4565 2.66389C98.9898 2.57856 99.6138 2.53589 100.328 2.53589C100.595 2.53589 100.904 2.54122 101.256 2.55189C101.619 2.56256 101.955 2.59456 102.264 2.64789C102.52 2.66922 102.723 2.71189 102.872 2.77589C103.032 2.82922 103.15 2.90922 103.224 3.01589C103.299 3.11189 103.336 3.26122 103.336 3.46389V3.83189C103.24 3.71456 103.075 3.62922 102.84 3.57589C102.606 3.51189 102.328 3.46389 102.008 3.43189C101.699 3.39989 101.374 3.38389 101.032 3.38389C100.702 3.37322 100.392 3.36789 100.104 3.36789C99.7952 3.36789 99.4965 3.38922 99.2085 3.43189C98.9312 3.46389 98.7072 3.55456 98.5365 3.70389C98.3658 3.85322 98.2805 4.09856 98.2805 4.43989C98.2805 4.70656 98.3338 4.89856 98.4405 5.01589C98.5472 5.13322 98.6965 5.20789 98.8885 5.23989C99.0805 5.27189 99.2992 5.28789 99.5445 5.28789H101.304C101.731 5.28789 102.104 5.32522 102.424 5.39989C102.744 5.47456 102.995 5.63456 103.176 5.87989C103.358 6.12522 103.448 6.50922 103.448 7.03189C103.448 7.62922 103.283 8.07189 102.952 8.35989C102.622 8.64789 102.174 8.83989 101.608 8.93589C101.043 9.02122 100.392 9.06389 99.6565 9.06389Z" fill="white"/>
<path d="M89.7186 9C89.42 9 89.2706 8.85067 89.2706 8.552V3.048C89.5906 2.92 90.0226 2.808 90.5666 2.712C91.1106 2.60534 91.7293 2.552 92.4226 2.552C93.1053 2.552 93.6493 2.59467 94.0546 2.68C94.4706 2.76534 94.7853 2.904 94.9986 3.096C95.212 3.27734 95.3506 3.51734 95.4146 3.816C95.4893 4.11467 95.5266 4.48267 95.5266 4.92V8.392C95.5266 8.54134 95.5106 8.664 95.4786 8.76C95.4573 8.856 95.3986 8.92 95.3026 8.952C95.2173 8.984 95.084 9 94.9026 9H94.0226V4.6C94.0226 4.184 93.8946 3.88534 93.6386 3.704C93.3826 3.52267 92.9773 3.432 92.4226 3.432C92.252 3.432 92.06 3.448 91.8466 3.48C91.6333 3.50134 91.4306 3.53867 91.2386 3.592C91.0466 3.64534 90.892 3.71467 90.7746 3.8V9H89.7186Z" fill="white"/>
<path d="M84.4223 9.09589C83.8889 9.09589 83.4143 9.05856 82.9983 8.98389C82.5929 8.89856 82.2409 8.74389 81.9423 8.51989C81.6543 8.29589 81.4356 7.96522 81.2863 7.52789C81.1369 7.09056 81.0623 6.51989 81.0623 5.81589C81.0623 5.11189 81.1369 4.54122 81.2863 4.10389C81.4356 3.66656 81.6543 3.33589 81.9423 3.11189C82.2409 2.88789 82.5929 2.73856 82.9983 2.66389C83.4143 2.57856 83.8889 2.53589 84.4223 2.53589C84.9343 2.53589 85.3929 2.57856 85.7983 2.66389C86.2143 2.73856 86.5663 2.88789 86.8543 3.11189C87.1423 3.33589 87.3609 3.66656 87.5103 4.10389C87.6703 4.54122 87.7503 5.11189 87.7503 5.81589C87.7503 6.53056 87.6703 7.10656 87.5103 7.54389C87.3609 7.98122 87.1423 8.31189 86.8543 8.53589C86.5663 8.74922 86.2143 8.89856 85.7983 8.98389C85.3929 9.05856 84.9343 9.09589 84.4223 9.09589ZM84.4223 8.29589C84.8063 8.29589 85.1316 8.23722 85.3983 8.11989C85.6756 8.00256 85.8836 7.76789 86.0223 7.41589C86.1609 7.06389 86.2303 6.53056 86.2303 5.81589C86.2303 5.10122 86.1609 4.56789 86.0223 4.21589C85.8836 3.86389 85.6756 3.62922 85.3983 3.51189C85.1316 3.39455 84.8063 3.33589 84.4223 3.33589C84.0383 3.33589 83.7076 3.39455 83.4303 3.51189C83.1529 3.62922 82.9396 3.86389 82.7903 4.21589C82.6516 4.56789 82.5823 5.10122 82.5823 5.81589C82.5823 6.53056 82.6516 7.06389 82.7903 7.41589C82.9396 7.76789 83.1529 8.00256 83.4303 8.11989C83.7076 8.23722 84.0383 8.29589 84.4223 8.29589Z" fill="white"/>
<path d="M79.0704 9.0639C78.505 9.0639 78.121 8.93056 77.9184 8.6639C77.7157 8.38656 77.6144 7.9759 77.6144 7.4319L77.6304 2.6159H79.1184V7.3519C79.1184 7.75723 79.1664 8.03456 79.2624 8.1839C79.369 8.33323 79.545 8.4079 79.7904 8.4079C79.8864 8.4079 79.993 8.39723 80.1104 8.3759C80.2277 8.35456 80.3024 8.33856 80.3344 8.3279V8.9359C80.2917 8.94656 80.2224 8.96256 80.1264 8.9839C80.0304 9.00523 79.897 9.02123 79.7264 9.0319C79.5557 9.05323 79.337 9.0639 79.0704 9.0639ZM78.3984 1.7359C78.1531 1.7359 77.9664 1.7039 77.8384 1.6399C77.7211 1.56523 77.6624 1.4319 77.6624 1.2399C77.6624 1.0479 77.7211 0.919897 77.8384 0.855897C77.9557 0.78123 78.1424 0.743896 78.3984 0.743896C78.6437 0.743896 78.8197 0.78123 78.9264 0.855897C79.0437 0.919897 79.1024 1.0479 79.1024 1.2399C79.1024 1.4319 79.0437 1.56523 78.9264 1.6399C78.8197 1.7039 78.6437 1.7359 78.3984 1.7359Z" fill="white"/>
<path d="M75.0649 9.04792C74.6382 9.04792 74.3022 8.99992 74.0569 8.90392C73.8222 8.80792 73.6515 8.63726 73.5449 8.39192C73.4382 8.14659 73.3849 7.81592 73.3849 7.39992V3.43192H72.7449V2.61592H73.3849V1.55992C73.3849 1.36792 73.4009 1.22925 73.4329 1.14392C73.4649 1.04792 73.5182 0.989255 73.5929 0.967921C73.6782 0.935922 73.8009 0.919922 73.9609 0.919922H74.8889C74.8889 0.941255 74.8889 0.989255 74.8889 1.06392C74.8889 1.12792 74.8889 1.22392 74.8889 1.35192V2.61592H76.3929V3.43192H74.8889V7.25592C74.8889 7.67192 74.9315 7.97059 75.0169 8.15192C75.1022 8.32259 75.3049 8.40792 75.6249 8.40792C75.7315 8.40792 75.8489 8.39726 75.9769 8.37592C76.1155 8.35459 76.2115 8.33326 76.2649 8.31192V8.93592C76.2009 8.94659 76.0622 8.96792 75.8489 8.99992C75.6355 9.03192 75.3742 9.04792 75.0649 9.04792Z" fill="white"/>
<path d="M66.7091 2.61597V6.88797C66.7091 7.37863 66.8424 7.7253 67.1091 7.92797C67.3757 8.13063 67.7917 8.23197 68.3571 8.23197C68.9651 8.23197 69.3971 8.1253 69.6531 7.91197C69.9197 7.69863 70.0531 7.3573 70.0531 6.88797V2.61597C70.0637 2.61597 70.1064 2.61597 70.1811 2.61597C70.2664 2.61597 70.3571 2.61597 70.4531 2.61597C70.5491 2.61597 70.6397 2.61597 70.7251 2.61597C70.8104 2.61597 70.8637 2.61597 70.8851 2.61597C71.0557 2.61597 71.1891 2.62663 71.2851 2.64797C71.3811 2.65863 71.4451 2.70663 71.4771 2.79197C71.5197 2.86663 71.5411 2.99463 71.5411 3.17597V6.66397C71.5411 7.2293 71.4557 7.6933 71.2851 8.05597C71.1144 8.40797 70.7944 8.6693 70.3251 8.83997C69.8664 8.99997 69.2051 9.07997 68.3411 9.07997C67.5304 9.07997 66.8957 9.01063 66.4371 8.87197C65.9891 8.7333 65.6691 8.49863 65.4771 8.16797C65.2957 7.82663 65.2051 7.36263 65.2051 6.77597V3.17597C65.2051 2.95197 65.2424 2.80263 65.3171 2.72797C65.3917 2.6533 65.5411 2.61597 65.7651 2.61597C65.9251 2.61597 66.0797 2.61597 66.2291 2.61597C66.3891 2.61597 66.5491 2.61597 66.7091 2.61597Z" fill="white"/>
<path d="M63.1979 9.06392C62.6326 9.06392 62.2272 8.95192 61.9819 8.72792C61.7366 8.49325 61.6139 8.08259 61.6139 7.49592V1.55992C61.6139 1.38925 61.6246 1.26125 61.6459 1.17592C61.6779 1.07992 61.7366 1.01592 61.8219 0.983921C61.9072 0.941255 62.0352 0.919922 62.2059 0.919922H63.1339C63.1339 0.941255 63.1232 1.02659 63.1019 1.17592C63.0912 1.32525 63.0859 1.50125 63.0859 1.70392V7.30392C63.0859 7.69859 63.1339 7.98126 63.2299 8.15192C63.3259 8.32259 63.5072 8.40792 63.7739 8.40792C63.8592 8.40792 63.9606 8.39726 64.0779 8.37592C64.2059 8.35459 64.2859 8.33859 64.3179 8.32792V8.93592C64.2539 8.94659 64.1419 8.96792 63.9819 8.99992C63.8219 9.04259 63.5606 9.06392 63.1979 9.06392Z" fill="white"/>
<path d="M56.7816 9.09589C56.2483 9.09589 55.7736 9.05856 55.3576 8.98389C54.9523 8.89856 54.6003 8.74389 54.3016 8.51989C54.0136 8.29589 53.795 7.96522 53.6456 7.52789C53.4963 7.09056 53.4216 6.51989 53.4216 5.81589C53.4216 5.11189 53.4963 4.54122 53.6456 4.10389C53.795 3.66656 54.0136 3.33589 54.3016 3.11189C54.6003 2.88789 54.9523 2.73856 55.3576 2.66389C55.7736 2.57856 56.2483 2.53589 56.7816 2.53589C57.2936 2.53589 57.7523 2.57856 58.1576 2.66389C58.5736 2.73856 58.9256 2.88789 59.2136 3.11189C59.5016 3.33589 59.7203 3.66656 59.8696 4.10389C60.0296 4.54122 60.1096 5.11189 60.1096 5.81589C60.1096 6.53056 60.0296 7.10656 59.8696 7.54389C59.7203 7.98122 59.5016 8.31189 59.2136 8.53589C58.9256 8.74922 58.5736 8.89856 58.1576 8.98389C57.7523 9.05856 57.2936 9.09589 56.7816 9.09589ZM56.7816 8.29589C57.1656 8.29589 57.491 8.23722 57.7576 8.11989C58.035 8.00256 58.243 7.76789 58.3816 7.41589C58.5203 7.06389 58.5896 6.53056 58.5896 5.81589C58.5896 5.10122 58.5203 4.56789 58.3816 4.21589C58.243 3.86389 58.035 3.62922 57.7576 3.51189C57.491 3.39455 57.1656 3.33589 56.7816 3.33589C56.3976 3.33589 56.067 3.39455 55.7896 3.51189C55.5123 3.62922 55.299 3.86389 55.1496 4.21589C55.011 4.56789 54.9416 5.10122 54.9416 5.81589C54.9416 6.53056 55.011 7.06389 55.1496 7.41589C55.299 7.76789 55.5123 8.00256 55.7896 8.11989C56.067 8.23722 56.3976 8.29589 56.7816 8.29589Z" fill="white"/>
<path d="M44.4398 7.68793C44.6745 7.82659 44.9785 7.93326 45.3518 8.00793C45.7358 8.07193 46.1305 8.11459 46.5358 8.13593C46.9411 8.14659 47.2931 8.15193 47.5918 8.15193C47.7091 8.15193 47.8425 8.15193 47.9918 8.15193C48.1518 8.14126 48.2905 8.13593 48.4078 8.13593C48.7918 8.12526 49.1278 8.08259 49.4158 8.00793C49.7038 7.9226 49.9225 7.78393 50.0718 7.59193C50.2318 7.39993 50.3118 7.12793 50.3118 6.77593C50.3118 6.33859 50.1945 6.05593 49.9598 5.92793C49.7358 5.79993 49.4052 5.73593 48.9678 5.73593C48.8185 5.73593 48.6585 5.73593 48.4878 5.73593C48.3172 5.73593 48.1198 5.73593 47.8958 5.73593C47.6825 5.73593 47.4318 5.73593 47.1438 5.73593C46.8238 5.73593 46.5038 5.71993 46.1838 5.68793C45.8638 5.65593 45.5758 5.58659 45.3198 5.47993C45.0638 5.36259 44.8558 5.18126 44.6958 4.93593C44.5358 4.67993 44.4558 4.32259 44.4558 3.86393C44.4558 3.33059 44.5518 2.90926 44.7438 2.59993C44.9358 2.29059 45.2025 2.06659 45.5438 1.92793C45.8958 1.77859 46.2958 1.68259 46.7438 1.63993C47.2025 1.59726 47.7038 1.57593 48.2478 1.57593C48.5678 1.57593 48.9198 1.58126 49.3038 1.59193C49.6878 1.60259 50.0558 1.62926 50.4078 1.67193C50.7598 1.70393 51.0318 1.76259 51.2238 1.84793C51.4478 1.86926 51.6185 1.93859 51.7358 2.05593C51.8638 2.16259 51.9278 2.30126 51.9278 2.47193C51.9278 2.50393 51.9278 2.55726 51.9278 2.63193C51.9278 2.70659 51.9278 2.77593 51.9278 2.83993C51.9278 2.90393 51.9278 2.95193 51.9278 2.98393C51.8425 2.87726 51.6825 2.79726 51.4478 2.74393C51.2238 2.67993 50.9678 2.63193 50.6798 2.59993C50.3918 2.56793 50.1092 2.54659 49.8318 2.53593C49.5652 2.51459 49.3358 2.50393 49.1438 2.50393H48.0558C47.6931 2.50393 47.3678 2.53593 47.0798 2.59993C46.7918 2.65326 46.5625 2.77059 46.3918 2.95193C46.2212 3.12259 46.1358 3.38926 46.1358 3.75193C46.1358 4.02926 46.1892 4.24259 46.2958 4.39193C46.4132 4.5306 46.5785 4.6266 46.7918 4.67993C47.0158 4.72259 47.2772 4.74393 47.5758 4.74393C48.0665 4.74393 48.4825 4.74393 48.8238 4.74393C49.1652 4.74393 49.4265 4.74393 49.6078 4.74393C50.0878 4.74393 50.5092 4.78659 50.8718 4.87193C51.2452 4.94659 51.5332 5.12259 51.7358 5.39993C51.9492 5.67726 52.0558 6.11459 52.0558 6.71193C52.0558 7.27726 51.9331 7.73059 51.6878 8.07193C51.4425 8.40259 51.1065 8.64259 50.6798 8.79193C50.2532 8.93059 49.7625 9.01593 49.2078 9.04793C48.8772 9.06926 48.5572 9.07993 48.2478 9.07993C47.9385 9.09059 47.6131 9.09059 47.2718 9.07993C46.9625 9.07993 46.6425 9.06926 46.3118 9.04793C45.9812 9.0266 45.6718 8.98926 45.3838 8.93593C45.1065 8.87193 44.8771 8.78659 44.6958 8.67993C44.5251 8.57326 44.4398 8.42926 44.4398 8.24793V7.68793Z" fill="white"/>
<path d="M37.7836 9.04792C37.357 9.04792 37.021 8.99992 36.7756 8.90392C36.541 8.80792 36.3703 8.63726 36.2636 8.39192C36.157 8.14659 36.1036 7.81592 36.1036 7.39992V3.43192H35.4636V2.61592H36.1036V1.55992C36.1036 1.36792 36.1196 1.22925 36.1516 1.14392C36.1836 1.04792 36.237 0.989255 36.3116 0.967921C36.397 0.935922 36.5196 0.919922 36.6796 0.919922H37.6076C37.6076 0.941255 37.6076 0.989255 37.6076 1.06392C37.6076 1.12792 37.6076 1.22392 37.6076 1.35192V2.61592H39.1116V3.43192H37.6076V7.25592C37.6076 7.67192 37.6503 7.97059 37.7356 8.15192C37.821 8.32259 38.0236 8.40792 38.3436 8.40792C38.4503 8.40792 38.5676 8.39726 38.6956 8.37592C38.8343 8.35459 38.9303 8.33326 38.9836 8.31192V8.93592C38.9196 8.94659 38.781 8.96792 38.5676 8.99992C38.3543 9.03192 38.093 9.04792 37.7836 9.04792Z" fill="white"/>
<path d="M30.8218 8.99987H29.7978C29.6378 8.99987 29.5151 8.9572 29.4298 8.87187C29.3444 8.78654 29.3018 8.62654 29.3018 8.39187V2.93587C29.5578 2.8612 29.9151 2.7812 30.3738 2.69587C30.8324 2.61054 31.3818 2.56787 32.0218 2.56787C32.6511 2.56787 33.1471 2.61054 33.5098 2.69587C33.8724 2.77054 34.1391 2.88787 34.3098 3.04787C34.4911 3.1972 34.6031 3.38387 34.6458 3.60787C34.6991 3.8212 34.7258 4.07187 34.7258 4.35987H33.2858L33.2698 4.13587C33.2698 3.87987 33.2004 3.69854 33.0618 3.59187C32.9338 3.47454 32.7791 3.39987 32.5978 3.36787C32.4164 3.33587 32.2351 3.31987 32.0538 3.31987C31.7764 3.31987 31.5258 3.34654 31.3018 3.39987C31.0884 3.4532 30.9284 3.52254 30.8218 3.60787V8.99987Z" fill="white"/>
<path d="M24.2294 9.09598C23.5681 9.09598 23.0294 9.06398 22.6134 8.99998C22.1974 8.94665 21.8774 8.84532 21.6534 8.69598C21.4294 8.54665 21.2747 8.34398 21.1894 8.08798C21.1147 7.83198 21.0774 7.51198 21.0774 7.12798C21.0774 6.58398 21.1361 6.17332 21.2534 5.89598C21.3814 5.60798 21.5947 5.41065 21.8934 5.30398C22.2027 5.19732 22.6134 5.14398 23.1254 5.14398C23.3921 5.14398 23.6854 5.14932 24.0054 5.15998C24.3361 5.17065 24.6507 5.18665 24.9494 5.20798C25.2587 5.21865 25.5254 5.23465 25.7494 5.25598C25.9841 5.27732 26.1387 5.30398 26.2134 5.33598C26.2134 4.88798 26.1761 4.53598 26.1014 4.27998C26.0267 4.02398 25.9041 3.83198 25.7334 3.70398C25.5734 3.57598 25.3707 3.49065 25.1254 3.44798C24.8801 3.40532 24.5921 3.38398 24.2614 3.38398C23.8987 3.38398 23.5361 3.39465 23.1734 3.41598C22.8214 3.43732 22.4854 3.47465 22.1654 3.52798C21.8561 3.58132 21.6001 3.65065 21.3974 3.73598V3.43198C21.3974 3.18665 21.4614 3.01065 21.5894 2.90398C21.7281 2.79732 21.8934 2.72798 22.0854 2.69598C22.2987 2.64265 22.6134 2.59998 23.0294 2.56798C23.4454 2.53598 23.8881 2.52532 24.3574 2.53598C24.9547 2.53598 25.4614 2.56798 25.8774 2.63198C26.3041 2.68532 26.6454 2.80265 26.9014 2.98398C27.1681 3.16532 27.3601 3.43732 27.4774 3.79998C27.6054 4.16265 27.6694 4.64798 27.6694 5.25598V8.51998C27.5734 8.72265 27.2481 8.87198 26.6934 8.96798C26.1387 9.05332 25.3174 9.09598 24.2294 9.09598ZM24.2294 8.42398C24.6561 8.42398 25.0027 8.41332 25.2694 8.39198C25.5467 8.35998 25.7601 8.32265 25.9094 8.27998C26.0587 8.22665 26.1601 8.16265 26.2134 8.08798V5.87998C26.1174 5.84798 25.9467 5.82132 25.7014 5.79998C25.4561 5.76798 25.2001 5.74132 24.9334 5.71998C24.6667 5.69865 24.4427 5.68798 24.2614 5.68798C23.8667 5.68798 23.5467 5.71465 23.3014 5.76798C23.0561 5.82132 22.8801 5.94398 22.7734 6.13598C22.6667 6.32798 22.6134 6.62665 22.6134 7.03198C22.6134 7.36265 22.6507 7.62932 22.7254 7.83198C22.8001 8.03465 22.9494 8.18398 23.1734 8.27998C23.4081 8.37598 23.7601 8.42398 24.2294 8.42398Z" fill="white"/>
<path d="M10.5816 8.99987C10.3363 8.99987 10.171 8.96254 10.0856 8.88787C10.011 8.8132 9.97363 8.6532 9.97363 8.40787V3.06387C10.091 3.03187 10.2403 2.9892 10.4216 2.93587C10.6136 2.88254 10.8323 2.8292 11.0776 2.77587C11.3336 2.71187 11.611 2.66387 11.9096 2.63187C12.219 2.59987 12.539 2.58387 12.8696 2.58387C13.2536 2.58387 13.5843 2.61587 13.8616 2.67987C14.139 2.7332 14.379 2.83987 14.5816 2.99987C14.7843 3.1492 14.9496 3.36787 15.0776 3.65587L14.8216 3.63987C14.907 3.4372 15.035 3.26654 15.2056 3.12787C15.3763 2.97854 15.5683 2.86654 15.7816 2.79187C16.0056 2.70654 16.235 2.64787 16.4696 2.61587C16.7043 2.58387 16.923 2.56787 17.1256 2.56787C17.7656 2.56787 18.267 2.63187 18.6296 2.75987C19.003 2.8772 19.2643 3.07987 19.4136 3.36787C19.5736 3.65587 19.6536 4.05054 19.6536 4.55187V8.45587C19.6536 8.67987 19.611 8.82921 19.5256 8.90387C19.451 8.96787 19.3016 8.99987 19.0776 8.99987H18.1656C18.1656 8.2532 18.1656 7.50654 18.1656 6.75987C18.1656 6.0132 18.1656 5.2612 18.1656 4.50387C18.155 4.0452 18.0483 3.73587 17.8456 3.57587C17.643 3.41587 17.3336 3.33587 16.9176 3.33587C16.7256 3.33587 16.523 3.36254 16.3096 3.41587C16.107 3.4692 15.931 3.54387 15.7816 3.63987C15.643 3.73587 15.5736 3.84787 15.5736 3.97587V8.99987H14.0696V4.16787C14.0696 3.91187 13.9523 3.71454 13.7176 3.57587C13.483 3.42654 13.179 3.35187 12.8056 3.35187C12.5816 3.35187 12.3736 3.3732 12.1816 3.41587C11.9896 3.44787 11.8296 3.49587 11.7016 3.55987C11.5736 3.62387 11.499 3.7092 11.4776 3.81587V8.99987H10.5816Z" fill="white"/>
<path d="M0.767944 7.68793C1.00261 7.82659 1.30661 7.93326 1.67994 8.00793C2.06394 8.07193 2.45861 8.11459 2.86394 8.13593C3.26928 8.14659 3.62128 8.15193 3.91994 8.15193C4.03728 8.15193 4.17061 8.15193 4.31994 8.15193C4.47994 8.14126 4.61861 8.13593 4.73594 8.13593C5.11994 8.12526 5.45594 8.08259 5.74394 8.00793C6.03194 7.9226 6.25061 7.78393 6.39994 7.59193C6.55994 7.39993 6.63994 7.12793 6.63994 6.77593C6.63994 6.33859 6.52261 6.05593 6.28794 5.92793C6.06394 5.79993 5.73328 5.73593 5.29594 5.73593C5.14661 5.73593 4.98661 5.73593 4.81594 5.73593C4.64528 5.73593 4.44794 5.73593 4.22394 5.73593C4.01061 5.73593 3.75994 5.73593 3.47194 5.73593C3.15194 5.73593 2.83194 5.71993 2.51194 5.68793C2.19194 5.65593 1.90394 5.58659 1.64794 5.47993C1.39194 5.36259 1.18394 5.18126 1.02394 4.93593C0.863944 4.67993 0.783944 4.32259 0.783944 3.86393C0.783944 3.33059 0.879944 2.90926 1.07194 2.59993C1.26394 2.29059 1.53061 2.06659 1.87194 1.92793C2.22394 1.77859 2.62394 1.68259 3.07194 1.63993C3.53061 1.59726 4.03194 1.57593 4.57594 1.57593C4.89594 1.57593 5.24794 1.58126 5.63194 1.59193C6.01594 1.60259 6.38394 1.62926 6.73594 1.67193C7.08794 1.70393 7.35994 1.76259 7.55194 1.84793C7.77594 1.86926 7.94661 1.93859 8.06394 2.05593C8.19194 2.16259 8.25594 2.30126 8.25594 2.47193C8.25594 2.50393 8.25594 2.55726 8.25594 2.63193C8.25594 2.70659 8.25594 2.77593 8.25594 2.83993C8.25594 2.90393 8.25594 2.95193 8.25594 2.98393C8.17061 2.87726 8.01061 2.79726 7.77594 2.74393C7.55194 2.67993 7.29594 2.63193 7.00794 2.59993C6.71994 2.56793 6.43728 2.54659 6.15994 2.53593C5.89328 2.51459 5.66394 2.50393 5.47194 2.50393H4.38394C4.02128 2.50393 3.69594 2.53593 3.40794 2.59993C3.11994 2.65326 2.89061 2.77059 2.71994 2.95193C2.54928 3.12259 2.46394 3.38926 2.46394 3.75193C2.46394 4.02926 2.51728 4.24259 2.62394 4.39193C2.74128 4.5306 2.90661 4.6266 3.11994 4.67993C3.34394 4.72259 3.60528 4.74393 3.90394 4.74393C4.39461 4.74393 4.81061 4.74393 5.15194 4.74393C5.49328 4.74393 5.75461 4.74393 5.93594 4.74393C6.41594 4.74393 6.83728 4.78659 7.19994 4.87193C7.57328 4.94659 7.86128 5.12259 8.06394 5.39993C8.27728 5.67726 8.38394 6.11459 8.38394 6.71193C8.38394 7.27726 8.26128 7.73059 8.01594 8.07193C7.77061 8.40259 7.43461 8.64259 7.00794 8.79193C6.58128 8.93059 6.09061 9.01593 5.53594 9.04793C5.20528 9.06926 4.88528 9.07993 4.57594 9.07993C4.26661 9.09059 3.94128 9.09059 3.59994 9.07993C3.29061 9.07993 2.97061 9.06926 2.63994 9.04793C2.30928 9.0266 1.99994 8.98926 1.71194 8.93593C1.43461 8.87193 1.20528 8.78659 1.02394 8.67993C0.853278 8.57326 0.767944 8.42926 0.767944 8.24793V7.68793Z" fill="white"/>
</svg>
